<svg width="182" height="182" viewBox="0 0 182 182" fill="none" xmlns="http://www.w3.org/2000/svg">
<g filter="url(#filter0_ii_1_6269)">
<circle cx="65.2991" cy="73.6813" r="45.3432" fill="url(#paint0_linear_1_6269)"/>
</g>
<g style="mix-blend-mode:multiply" opacity="0.6">
<path fill-rule="evenodd" clip-rule="evenodd" d="M37.5394 85.5608C37.1972 87.8099 36.8717 87.5007 36.3115 86.9685L36.3114 86.9685C35.8137 86.4957 35.1307 85.847 34.0861 86.6599C33.3354 87.4981 32.2663 89.4727 32.7713 90.027C35.7149 89.4867 35.7013 92.7933 32.7212 92.1879C30.8331 93.1819 29.6193 92.5534 28.8405 92.1501C28.1818 91.809 27.8342 91.629 27.6528 92.728C27.9039 94.2224 29.1194 94.4948 30.1051 94.7157C31.0485 94.9272 31.7813 95.0915 31.2562 96.2348L31.2373 96.327L31.2373 96.327C31.0178 97.3941 30.8536 98.1927 32.5256 98.4237C34.2993 98.3242 34.2131 99.9247 34.1313 101.445C34.0407 103.127 33.9555 104.711 36.3974 103.789C40.403 103.495 39.1019 105.93 37.7604 108.441C37.6 108.741 37.4391 109.043 37.2866 109.34C26.7332 101.038 19.9559 88.152 19.9559 73.6827C19.9559 57.9908 27.927 44.1606 40.0409 36.0204C40.4959 36.1162 40.9352 36.3198 41.3384 36.6986L41.3429 36.7079C41.252 36.1057 41.4112 35.4966 41.7073 34.9526C42.7007 34.3461 43.7193 33.7769 44.7611 33.2467C45.0095 33.488 45.1195 33.9564 44.9918 34.7146C45.2091 34.8101 45.4581 34.8114 45.6883 34.8125H45.6884C46.1764 34.815 46.5797 34.8171 46.4159 35.7159C46.3464 36.531 45.6045 36.7007 44.9141 36.8587L44.914 36.8587C44.066 37.0527 43.2958 37.229 43.9454 38.5614C43.8773 38.8145 43.7949 39.0836 43.7094 39.3629C43.172 41.1185 42.511 43.2776 44.505 44.4106C47.2156 37.2828 52.7912 39.3539 55.8729 40.4986L55.873 40.4987C57.6276 41.1503 58.5736 41.5017 57.7219 39.6837C52.2713 37.7929 55.1377 32.3022 60.0468 34.6122C59.2681 33.468 58.0933 33.2467 56.948 33.0309L56.9477 33.0309L56.9475 33.0309C55.7575 32.8068 54.5993 32.5887 53.9502 31.3476C53.9778 30.9575 54.389 30.2799 54.8901 29.5399C56.562 29.1472 58.2695 28.847 60.007 28.6451C60.4853 30.562 61.3722 32.1445 62.5446 31.9529C63.1168 32.0818 63.8291 32.069 64.5466 32.056L64.547 32.056C66.2656 32.0251 68.0144 31.9936 67.9406 33.909C69.7408 33.1222 70.0047 34.1942 70.2613 35.2366L70.2613 35.2366L70.2613 35.2367L70.2614 35.2367C70.3465 35.5825 70.4309 35.9252 70.5703 36.1956C76.2675 39.2368 74.6933 39.7524 72.9458 40.3247L72.9457 40.3248L72.9455 40.3248C71.7094 40.7297 70.3867 41.1629 71.4893 42.5385C70.7821 43.631 69.5773 42.9663 68.3518 42.2902C66.9913 41.5396 65.6055 40.7751 64.8468 42.3849C64.5266 43.203 65.6961 44.0815 67.0169 45.0736L67.0172 45.0738C68.6061 46.2673 70.4139 47.6252 70.1108 49.2401C68.9758 50.923 70.0368 51.9494 71.1706 53.0462C72.2456 54.0862 73.386 55.1894 72.7815 56.9755C72.0171 59.006 75.1155 60.0026 75.7297 57.6509C76.1528 55.9184 77.4677 56.5517 78.6369 57.3201C76.6988 55.6994 75.4385 49.1842 79.1738 52.0484C79.3995 53.4001 80.44 54.006 81.4377 54.5869C82.5917 55.2587 83.6884 55.8973 83.4005 57.6182C81.5613 60.8888 88.1166 64.6055 94.0774 67.985C97.9366 70.1732 101.548 72.2205 102.468 73.9134C102.077 76.6145 103.851 75.7809 103.315 73.6339C103.362 73.3533 103.211 73.0404 103.067 72.7423L103.067 72.7422L103.067 72.7419C102.841 72.2734 102.633 71.842 103.242 71.6315C103.953 71.3836 104.123 71.9516 104.301 72.549L104.301 72.5492C104.391 72.8499 104.483 73.158 104.648 73.3732C105.107 68.4833 109.757 76.675 105.012 77.546C108.716 80.3979 107.943 83.8541 107.152 87.3905C106.76 89.1396 106.365 90.9084 106.504 92.6335C105.764 94.2397 104.933 95.7952 104.018 97.2935C103.884 97.0042 103.854 96.5592 103.983 95.9229C104.013 95.1435 104.368 93.8414 104.764 92.3888L104.764 92.3887C105.755 88.7549 107.002 84.1789 104.061 84.485C103.57 86.5291 103.565 88.7419 103.56 90.9953C103.554 93.8832 103.548 96.8378 102.518 99.589C100.964 101.817 99.216 103.898 97.2974 105.809C96.7133 105.526 96.3333 104.448 95.8942 103.202C95.4915 102.06 95.039 100.776 94.3335 99.8348C96.4309 100.161 98.0324 98.2934 99.1744 94.6608C97.855 95.0899 96.9413 94.3199 96.2349 93.7246C95.3774 93.0021 94.8255 92.5369 94.2243 94.7866C91.2624 92.0388 87.0857 86.1895 88.1413 81.7792C89.535 78.935 88.051 79.2413 86.1465 79.6345C85.0542 79.86 83.8236 80.114 82.9182 79.8186C78.0728 78.5099 78.5823 84.3314 79.0373 87.461C78.3991 89.0155 79.1616 89.9925 79.9205 90.9649L79.9206 90.9649L79.921 90.9654L79.9211 90.9655C80.3305 91.4902 80.7389 92.0136 80.9254 92.6256C81.6691 92.7824 82.368 92.6908 83.0395 92.6028L83.0399 92.6027C84.4428 92.4188 85.7263 92.2505 87.0493 94.3953C89.9172 95.4307 89.3083 97.3731 88.674 99.3968C88.0786 101.296 87.4607 103.267 89.6746 104.627C91.3989 106.806 89.9202 109.084 87.6181 109.941C87.8623 105.283 87.7132 105.318 86.6999 105.557C86.0142 105.718 84.9327 105.973 83.3095 104.93C83.9646 107.449 81.708 107.92 80.4659 106.55C80.6985 105.751 80.5083 105.098 80.3199 104.451L80.3198 104.451L80.3198 104.451C80.1691 103.934 80.0196 103.42 80.0883 102.839C79.0419 104.254 77.8862 102.936 78.1274 101.483C77.778 100.149 79.0122 99.0121 80.074 98.0338L80.0741 98.0337C81.3767 96.8337 82.4199 95.8727 79.9609 95.0799C79.0479 94.0065 78.3218 95.3628 77.5803 96.748C77.0286 97.7787 76.4683 98.8252 75.8161 98.8987C75.2235 98.3175 75.5304 97.5991 75.8596 96.8286L75.8596 96.8285C76.1951 96.0432 76.5537 95.2038 76.0072 94.4C76.012 92.2736 74.2125 92.9948 72.7306 93.5887C71.3856 94.1278 70.3021 94.562 71.0662 92.6676C73.5367 90.6696 70.9115 88.8581 70.22 92.3089C68.7636 91.1768 69.9214 89.2659 70.9344 87.594C72.0924 85.6828 73.0612 84.0839 69.7195 84.3174C68.8604 85.2323 68.5254 84.8878 68.0796 84.4293L68.0795 84.4292C67.8242 84.1666 67.5325 83.8666 67.0852 83.7445C62.7537 84.2137 62.2463 80.5714 61.7073 76.7023L61.7073 76.7022C61.2351 73.3129 60.7387 69.7494 57.6264 68.6229C56.4733 67.4095 56.6838 68.2908 56.925 69.3007C57.0569 69.8528 57.198 70.4434 57.1304 70.7512C53.7812 69.9833 53.9943 71.3907 54.1473 72.4012C54.2922 73.3579 54.3832 73.9589 51.3478 72.0226C51.4069 73.8668 51.2295 81.0853 48.9136 77.8813C47.6725 76.0279 45.734 75.3767 43.8748 74.7523C41.9173 74.0949 40.0478 73.4669 39.1727 71.4964C37.0662 69.5304 37.8972 68.2102 38.9019 66.6141L38.9019 66.6141L38.9023 66.6135L38.9023 66.6134C39.2494 66.062 39.6171 65.4778 39.8916 64.8227C39.5944 61.9538 40.7743 62.7638 42.1099 63.6806L42.1102 63.6808C42.6759 64.0691 43.2695 64.4767 43.7907 64.6318C43.4157 63.9709 43.0549 63.4008 42.7542 62.9258C41.5592 61.0379 41.3148 60.6517 44.9099 62.0285C43.9457 60.6547 44.4648 59.5119 44.9902 58.3552L44.9902 58.3552L44.9902 58.3551C45.268 57.7436 45.5476 57.1282 45.6106 56.4726C45.6492 56.0742 45.4512 55.6693 45.2549 55.2679L45.2548 55.2677C44.896 54.5339 44.5428 53.8117 45.6515 53.1613C44.828 52.1321 42.3075 51.9691 41.8616 53.7715C41.5704 56.9476 38.0489 56.6123 37.6895 54.1766C40.0827 53.5572 41.6705 52.7981 40.9972 49.5987C43.0809 45.4818 30.2598 49.8549 30.5783 51.876C30.7114 52.6003 31.4005 52.6548 32.0448 52.7057H32.0448L32.0452 52.7058L32.0454 52.7058C32.7223 52.7592 33.3497 52.8087 33.2308 53.6271C32.6094 54.2229 31.7994 54.0732 31.0006 53.9255C29.8576 53.7141 28.7376 53.5071 28.2261 55.4946C27.0776 58.6925 29.736 58.9547 32.0161 59.1796L32.0162 59.1796C33.4483 59.3209 34.7312 59.4474 34.8278 60.2774C34.8992 60.9959 35.4117 60.8482 35.9884 60.6819L35.9885 60.6819C36.4398 60.5519 36.9305 60.4104 37.28 60.664C36.3883 62.1402 31.6611 67.1979 30.874 67.5332C31.2128 68.2782 32.8602 69.3217 34.5696 70.4044L34.5697 70.4045C37.6583 72.3609 40.949 74.4454 37.0889 75.129C35.7327 75.1836 35.8886 75.7411 36.0298 76.2459C36.2131 76.9011 36.3715 77.4675 33.1671 76.731C33.1585 77.8581 34.1469 77.9101 34.9482 77.9523C35.8353 77.9991 36.4931 78.0337 35.3146 79.5019C33.4809 82.1662 34.7298 82.4892 36.0469 82.8299L36.0471 82.8299C37.2463 83.1399 38.502 83.4647 37.5394 85.5841V85.5608ZM91.478 56.9741L91.4785 56.9752L91.4786 56.9754C91.64 57.3669 91.8038 57.7639 91.9172 58.1759C87.4012 57.1633 102.195 72.3429 102.441 56.2862C102.591 54.7773 101.317 52.025 100.503 50.5628C99.0694 50.4593 97.9695 49.3531 96.9214 48.2989L96.9213 48.2988C95.8005 47.1715 94.7388 46.1037 93.3917 46.3854C91.7219 47.9454 86.376 53.2778 91.0076 54.3629C90.776 55.2727 91.1214 56.1098 91.478 56.9741ZM38.6193 83.4473L38.6193 83.4472C38.9599 82.2875 39.2705 81.2297 39.8688 82.7992C40.0747 83.5571 40.6812 83.4248 41.502 83.2457L41.5021 83.2457L41.5021 83.2457C42.8398 82.9539 44.7467 82.5381 46.4159 85.6493C46.021 85.9646 45.5916 86.2402 45.1621 86.5158L45.1618 86.516C44.0626 87.2216 42.9628 87.9276 42.4394 89.3005C41.7069 90.9491 37.8942 89.4914 37.9943 88.3038C38.3251 87.5963 38.0759 87.0432 37.8519 86.5461L37.8519 86.546C37.6292 86.0518 37.4314 85.613 37.8533 85.1324C38.1748 84.9606 38.4031 84.1835 38.6193 83.4474L38.6193 83.4474L38.6193 83.4473Z" fill="#94A3B8"/>
</g>
<g filter="url(#filter1_f_1_6269)">
<ellipse cx="65.299" cy="54.7885" rx="26.4502" ry="18.893" fill="url(#paint1_linear_1_6269)" style="mix-blend-mode:soft-light"/>
</g>
<g filter="url(#filter2_di_1_6269)">
<ellipse cx="86.5537" cy="53.8453" rx="4.25092" ry="5.6679" transform="rotate(-22.1932 86.5537 53.8453)" fill="#94A3B8"/>
</g>
<g filter="url(#filter3_di_1_6269)">
<ellipse cx="75.9419" cy="73.4517" rx="5.31934" ry="3.70185" transform="rotate(-22.1932 75.9419 73.4517)" fill="#64748B"/>
</g>
<g filter="url(#filter4_di_1_6269)">
<ellipse cx="48.3515" cy="47.8267" rx="4.23524" ry="4.3232" transform="rotate(15.8877 48.3515 47.8267)" fill="#94A3B8"/>
</g>
<g filter="url(#filter5_di_1_6269)">
<ellipse cx="54.0478" cy="107.845" rx="4.43423" ry="4.55446" transform="rotate(-20.5835 54.0478 107.845)" fill="#475569"/>
</g>
<g filter="url(#filter6_di_1_6269)">
<ellipse cx="76.4982" cy="93.7543" rx="6.80704" ry="5.6679" transform="rotate(-20.5835 76.4982 93.7543)" fill="#475569"/>
</g>
<g filter="url(#filter7_di_1_6269)">
<ellipse cx="46.9822" cy="81.037" rx="3.49519" ry="2.91028" transform="rotate(56.5561 46.9822 81.037)" fill="#64748B"/>
</g>
<g filter="url(#filter8_di_1_6269)">
<ellipse cx="32.7529" cy="88.972" rx="1.67855" ry="1.39765" transform="rotate(-20.5835 32.7529 88.972)" fill="#94A3B8"/>
</g>
<g filter="url(#filter9_di_1_6269)">
<ellipse cx="104.203" cy="67.0793" rx="1.67855" ry="1.39765" transform="rotate(48.1814 104.203 67.0793)" fill="#94A3B8"/>
</g>
<g filter="url(#filter10_di_1_6269)">
<ellipse cx="95.7995" cy="98.5371" rx="1.67855" ry="1.39765" transform="rotate(48.1814 95.7995 98.5371)" fill="#64748B"/>
</g>
<g filter="url(#filter11_di_1_6269)">
<ellipse cx="70.1957" cy="41.5736" rx="1.67855" ry="1.39765" transform="rotate(20.8278 70.1957 41.5736)" fill="#94A3B8"/>
</g>
<g filter="url(#filter12_di_1_6269)">
<ellipse cx="58.863" cy="64.25" rx="1.67855" ry="1.39765" transform="rotate(20.8278 58.863 64.25)" fill="#94A3B8"/>
</g>
<g filter="url(#filter13_di_1_6269)">
<ellipse cx="92.8705" cy="78.42" rx="1.67855" ry="1.39765" transform="rotate(94.6584 92.8705 78.42)" fill="#94A3B8"/>
</g>
<g filter="url(#filter14_di_1_6269)">
<ellipse cx="63.9946" cy="86.8049" rx="1.67855" ry="1.39765" transform="rotate(94.6584 63.9946 86.8049)" fill="#94A3B8"/>
</g>
<g filter="url(#filter15_di_1_6269)">
<ellipse cx="72.4965" cy="112.31" rx="1.67855" ry="1.39765" transform="rotate(94.6584 72.4965 112.31)" fill="#94A3B8"/>
</g>
<g filter="url(#filter16_f_1_6269)">
<path d="M59.814 146.626C57.1812 135.783 51.0379 131.265 48.2954 130.362H150.318C145.93 135.331 140.444 142.289 140.444 146.626C140.444 150.963 141.541 158.373 143.736 161.535H56.523C58.717 161.083 62.4469 157.469 59.814 146.626Z" fill="url(#paint2_linear_1_6269)"/>
</g>
<g filter="url(#filter17_d_1_6269)">
<path fill-rule="evenodd" clip-rule="evenodd" d="M150.318 83.6358C150.318 83.6244 150.318 83.6129 150.318 83.6015C150.318 64.0372 134.458 48.1771 114.893 48.1771C99.6167 48.1771 86.5987 57.8471 81.6263 71.4C80.0203 71.0391 78.3499 70.8487 76.6349 70.8487C64.1138 70.8487 53.9634 80.9992 53.9634 93.5203C53.9634 93.5873 53.9636 93.6542 53.9642 93.7211C44.3502 95.0958 36.9597 103.364 36.9597 113.358C36.9597 124.314 45.8413 133.196 56.7973 133.196H141.802H141.816C155.902 133.196 167.321 121.776 167.321 107.69C167.321 96.5848 160.224 87.1372 150.318 83.6358Z" fill="#64748B"/>
</g>
<g filter="url(#filter18_ii_1_6269)">
<path fill-rule="evenodd" clip-rule="evenodd" d="M167.321 107.69C167.321 121.776 155.902 133.196 141.816 133.196C141.811 133.196 141.806 133.196 141.802 133.196H56.7973C45.8413 133.196 36.9597 124.314 36.9597 113.358C36.9597 102.402 45.8413 93.5203 56.7973 93.5203C64.7108 93.5203 71.5421 98.154 74.7259 104.856H116.466C117.876 92.1035 128.687 82.1845 141.816 82.1845C155.902 82.1845 167.321 93.6038 167.321 107.69Z" fill="#F1F5F9"/>
</g>
<g filter="url(#filter19_f_1_6269)">
<circle cx="56.7972" cy="113.358" r="14.1697" fill="url(#paint3_linear_1_6269)" style="mix-blend-mode:soft-light"/>
</g>
<g filter="url(#filter20_i_1_6269)">
<circle cx="76.6349" cy="93.5203" r="22.6716" fill="#F1F5F9"/>
</g>
<g filter="url(#filter21_f_1_6269)">
<ellipse cx="76.6349" cy="90.6864" rx="17.0037" ry="14.1697" fill="url(#paint4_linear_1_6269)" style="mix-blend-mode:soft-light"/>
</g>
<g filter="url(#filter22_f_1_6269)">
<circle cx="144.65" cy="104.856" r="14.1697" fill="url(#paint5_linear_1_6269)" style="mix-blend-mode:soft-light"/>
</g>
<g filter="url(#filter23_i_1_6269)">
<circle cx="114.893" cy="83.6015" r="35.4244" fill="#F1F5F9"/>
</g>
<g filter="url(#filter24_f_1_6269)">
<ellipse cx="113.476" cy="68.0148" rx="19.8376" ry="14.1697" fill="url(#paint6_linear_1_6269)" style="mix-blend-mode:soft-light"/>
</g>
<g filter="url(#filter25_i_1_6269)">
<ellipse cx="102.14" cy="106.273" rx="25.5055" ry="18.4207" fill="url(#paint7_linear_1_6269)"/>
</g>
<g filter="url(#filter26_f_1_6269)">
<ellipse cx="102.14" cy="106.273" rx="19.8376" ry="12.7528" fill="url(#paint8_linear_1_6269)" style="mix-blend-mode:soft-light"/>
</g>
<path fill-rule="evenodd" clip-rule="evenodd" d="M150.318 83.6358C150.318 83.6244 150.318 83.6129 150.318 83.6015C150.318 64.0372 134.458 48.1771 114.893 48.1771C99.6167 48.1771 86.5987 57.8471 81.6263 71.4C80.0203 71.0391 78.3499 70.8487 76.6349 70.8487C64.1138 70.8487 53.9634 80.9992 53.9634 93.5203C53.9634 93.5873 53.9636 93.6542 53.9642 93.7211C44.3502 95.0958 36.9597 103.364 36.9597 113.358C36.9597 124.314 45.8413 133.196 56.7973 133.196H141.802H141.816C155.902 133.196 167.321 121.776 167.321 107.69C167.321 96.5848 160.224 87.1372 150.318 83.6358Z" fill="#93C5FD" style="mix-blend-mode:color"/>
<path fill-rule="evenodd" clip-rule="evenodd" d="M150.318 83.6358C150.318 83.6244 150.318 83.6129 150.318 83.6015C150.318 64.0372 134.458 48.1771 114.893 48.1771C99.6167 48.1771 86.5987 57.8471 81.6263 71.4C80.0203 71.0391 78.3499 70.8487 76.6349 70.8487C64.1138 70.8487 53.9634 80.9992 53.9634 93.5203C53.9634 93.5873 53.9636 93.6542 53.9642 93.7211C44.3502 95.0958 36.9597 103.364 36.9597 113.358C36.9597 124.314 45.8413 133.196 56.7973 133.196H141.802H141.816C155.902 133.196 167.321 121.776 167.321 107.69C167.321 96.5848 160.224 87.1372 150.318 83.6358Z" fill="#3730A3" style="mix-blend-mode:color"/>
<path fill-rule="evenodd" clip-rule="evenodd" d="M150.318 83.6358C150.318 83.6244 150.318 83.6129 150.318 83.6015C150.318 64.0372 134.458 48.1771 114.893 48.1771C99.6167 48.1771 86.5987 57.8471 81.6263 71.4C80.0203 71.0391 78.3499 70.8487 76.6349 70.8487C64.1138 70.8487 53.9634 80.9992 53.9634 93.5203C53.9634 93.5873 53.9636 93.6542 53.9642 93.7211C44.3502 95.0958 36.9597 103.364 36.9597 113.358C36.9597 124.314 45.8413 133.196 56.7973 133.196H141.802H141.816C155.902 133.196 167.321 121.776 167.321 107.69C167.321 96.5848 160.224 87.1372 150.318 83.6358Z" fill="#4338CA" fill-opacity="0.15" style="mix-blend-mode:multiply"/>
<g filter="url(#filter27_ii_1_6269)">
<path d="M56.1136 161.366L66.3574 144.603C66.6913 144.057 67.5333 144.396 67.3944 145.021L63.1328 164.199C62.7427 165.954 61.1857 167.203 59.3874 167.203C56.3912 167.203 54.5512 163.922 56.1136 161.366Z" fill="#3B82F6"/>
</g>
<path d="M61.9563 164.627C61.3444 166.067 59.6805 166.739 58.24 166.127C56.7994 165.515 56.1277 163.851 56.7396 162.411C57.3515 160.97 63.8586 148.17 65.2991 148.782C66.7397 149.394 62.5683 163.186 61.9563 164.627Z" fill="url(#paint9_radial_1_6269)"/>
<g filter="url(#filter28_ii_1_6269)">
<path d="M74.5343 161.366L84.7782 144.603C85.1121 144.057 85.954 144.396 85.8151 145.021L81.5535 164.199C81.1634 165.954 79.6064 167.203 77.8081 167.203C74.8119 167.203 72.972 163.922 74.5343 161.366Z" fill="#3B82F6"/>
</g>
<path d="M80.377 164.627C79.765 166.067 78.1012 166.739 76.6606 166.127C75.22 165.515 74.5483 163.851 75.1602 162.411C75.7722 160.97 82.2792 148.17 83.7198 148.782C85.1604 149.394 80.9889 163.186 80.377 164.627Z" fill="url(#paint10_radial_1_6269)"/>
<g filter="url(#filter29_ii_1_6269)">
<path d="M92.955 161.366L103.199 144.603C103.533 144.057 104.375 144.396 104.236 145.021L99.9742 164.199C99.5841 165.954 98.0271 167.203 96.2288 167.203C93.2326 167.203 91.3926 163.922 92.955 161.366Z" fill="#3B82F6"/>
</g>
<path d="M98.7976 164.627C98.1857 166.067 96.5218 166.739 95.0813 166.127C93.6407 165.515 92.969 163.851 93.5809 162.411C94.1928 160.97 100.7 148.17 102.14 148.782C103.581 149.394 99.4096 163.186 98.7976 164.627Z" fill="url(#paint11_radial_1_6269)"/>
<g filter="url(#filter30_ii_1_6269)">
<path d="M111.376 161.366L121.619 144.603C121.953 144.057 122.795 144.396 122.656 145.021L118.395 164.199C118.005 165.954 116.448 167.203 114.649 167.203C111.653 167.203 109.813 163.922 111.376 161.366Z" fill="#3B82F6"/>
</g>
<path d="M117.218 164.627C116.606 166.067 114.943 166.739 113.502 166.127C112.061 165.515 111.39 163.851 112.002 162.411C112.614 160.97 119.121 148.17 120.561 148.782C122.002 149.394 117.83 163.186 117.218 164.627Z" fill="url(#paint12_radial_1_6269)"/>
<defs>
<filter id="filter0_ii_1_6269" x="19.9559" y="25.5042" width="90.6864" height="96.3543" filterUnits="userSpaceOnUse" color-interpolation-filters="sRGB">
<feFlood flood-opacity="0" result="BackgroundImageFix"/>
<feBlend mode="normal" in="SourceGraphic" in2="BackgroundImageFix" result="shape"/>
<feColorMatrix in="SourceAlpha" type="matrix" values="0 0 0 0 0 0 0 0 0 0 0 0 0 0 0 0 0 0 127 0" result="hardAlpha"/>
<feMorphology radius="2.83395" operator="erode" in="SourceAlpha" result="effect1_innerShadow_1_6269"/>
<feOffset dy="-2.83395"/>
<feGaussianBlur stdDeviation="8.50185"/>
<feComposite in2="hardAlpha" operator="arithmetic" k2="-1" k3="1"/>
<feColorMatrix type="matrix" values="0 0 0 0 0.278431 0 0 0 0 0.333333 0 0 0 0 0.411765 0 0 0 1 0"/>
<feBlend mode="normal" in2="shape" result="effect1_innerShadow_1_6269"/>
<feColorMatrix in="SourceAlpha" type="matrix" values="0 0 0 0 0 0 0 0 0 0 0 0 0 0 0 0 0 0 127 0" result="hardAlpha"/>
<feOffset dy="2.83395"/>
<feGaussianBlur stdDeviation="2.83395"/>
<feComposite in2="hardAlpha" operator="arithmetic" k2="-1" k3="1"/>
<feColorMatrix type="matrix" values="0 0 0 0 0.796078 0 0 0 0 0.835294 0 0 0 0 0.882353 0 0 0 1 0"/>
<feBlend mode="normal" in2="effect1_innerShadow_1_6269" result="effect2_innerShadow_1_6269"/>
</filter>
<filter id="filter1_f_1_6269" x="31.2916" y="28.3383" width="68.0148" height="52.9004" filterUnits="userSpaceOnUse" color-interpolation-filters="sRGB">
<feFlood flood-opacity="0" result="BackgroundImageFix"/>
<feBlend mode="normal" in="SourceGraphic" in2="BackgroundImageFix" result="shape"/>
<feGaussianBlur stdDeviation="3.7786" result="effect1_foregroundBlur_1_6269"/>
</filter>
<filter id="filter2_di_1_6269" x="80.6553" y="48.3557" width="11.7968" height="13.8132" filterUnits="userSpaceOnUse" color-interpolation-filters="sRGB">
<feFlood flood-opacity="0" result="BackgroundImageFix"/>
<feColorMatrix in="SourceAlpha" type="matrix" values="0 0 0 0 0 0 0 0 0 0 0 0 0 0 0 0 0 0 127 0" result="hardAlpha"/>
<feOffset dy="1.41697"/>
<feGaussianBlur stdDeviation="0.708487"/>
<feComposite in2="hardAlpha" operator="out"/>
<feColorMatrix type="matrix" values="0 0 0 0 0.886275 0 0 0 0 0.909804 0 0 0 0 0.941176 0 0 0 0.7 0"/>
<feBlend mode="normal" in2="BackgroundImageFix" result="effect1_dropShadow_1_6269"/>
<feBlend mode="normal" in="SourceGraphic" in2="effect1_dropShadow_1_6269" result="shape"/>
<feColorMatrix in="SourceAlpha" type="matrix" values="0 0 0 0 0 0 0 0 0 0 0 0 0 0 0 0 0 0 127 0" result="hardAlpha"/>
<feOffset dy="1.41697"/>
<feGaussianBlur stdDeviation="1.41697"/>
<feComposite in2="hardAlpha" operator="arithmetic" k2="-1" k3="1"/>
<feColorMatrix type="matrix" values="0 0 0 0 0.392157 0 0 0 0 0.454902 0 0 0 0 0.545098 0 0 0 1 0"/>
<feBlend mode="normal" in2="shape" result="effect2_innerShadow_1_6269"/>
</filter>
<filter id="filter3_di_1_6269" x="69.4037" y="69.4779" width="13.0764" height="10.7815" filterUnits="userSpaceOnUse" color-interpolation-filters="sRGB">
<feFlood flood-opacity="0" result="BackgroundImageFix"/>
<feColorMatrix in="SourceAlpha" type="matrix" values="0 0 0 0 0 0 0 0 0 0 0 0 0 0 0 0 0 0 127 0" result="hardAlpha"/>
<feOffset dy="1.41697"/>
<feGaussianBlur stdDeviation="0.708487"/>
<feComposite in2="hardAlpha" operator="out"/>
<feColorMatrix type="matrix" values="0 0 0 0 0.886275 0 0 0 0 0.909804 0 0 0 0 0.941176 0 0 0 0.7 0"/>
<feBlend mode="normal" in2="BackgroundImageFix" result="effect1_dropShadow_1_6269"/>
<feBlend mode="normal" in="SourceGraphic" in2="effect1_dropShadow_1_6269" result="shape"/>
<feColorMatrix in="SourceAlpha" type="matrix" values="0 0 0 0 0 0 0 0 0 0 0 0 0 0 0 0 0 0 127 0" result="hardAlpha"/>
<feOffset dy="1.41697"/>
<feGaussianBlur stdDeviation="1.41697"/>
<feComposite in2="hardAlpha" operator="arithmetic" k2="-1" k3="1"/>
<feColorMatrix type="matrix" values="0 0 0 0 0.392157 0 0 0 0 0.454902 0 0 0 0 0.545098 0 0 0 1 0"/>
<feBlend mode="normal" in2="shape" result="effect2_innerShadow_1_6269"/>
</filter>
<filter id="filter4_di_1_6269" x="42.6915" y="43.5089" width="11.32" height="11.4695" filterUnits="userSpaceOnUse" color-interpolation-filters="sRGB">
<feFlood flood-opacity="0" result="BackgroundImageFix"/>
<feColorMatrix in="SourceAlpha" type="matrix" values="0 0 0 0 0 0 0 0 0 0 0 0 0 0 0 0 0 0 127 0" result="hardAlpha"/>
<feOffset dy="1.41697"/>
<feGaussianBlur stdDeviation="0.708487"/>
<feComposite in2="hardAlpha" operator="out"/>
<feColorMatrix type="matrix" values="0 0 0 0 0.886275 0 0 0 0 0.909804 0 0 0 0 0.941176 0 0 0 0.7 0"/>
<feBlend mode="normal" in2="BackgroundImageFix" result="effect1_dropShadow_1_6269"/>
<feBlend mode="normal" in="SourceGraphic" in2="effect1_dropShadow_1_6269" result="shape"/>
<feColorMatrix in="SourceAlpha" type="matrix" values="0 0 0 0 0 0 0 0 0 0 0 0 0 0 0 0 0 0 127 0" result="hardAlpha"/>
<feOffset dy="1.41697"/>
<feGaussianBlur stdDeviation="1.41697"/>
<feComposite in2="hardAlpha" operator="arithmetic" k2="-1" k3="1"/>
<feColorMatrix type="matrix" values="0 0 0 0 0.392157 0 0 0 0 0.454902 0 0 0 0 0.545098 0 0 0 1 0"/>
<feBlend mode="normal" in2="shape" result="effect2_innerShadow_1_6269"/>
</filter>
<filter id="filter5_di_1_6269" x="48.1803" y="103.304" width="11.7349" height="11.916" filterUnits="userSpaceOnUse" color-interpolation-filters="sRGB">
<feFlood flood-opacity="0" result="BackgroundImageFix"/>
<feColorMatrix in="SourceAlpha" type="matrix" values="0 0 0 0 0 0 0 0 0 0 0 0 0 0 0 0 0 0 127 0" result="hardAlpha"/>
<feOffset dy="1.41697"/>
<feGaussianBlur stdDeviation="0.708487"/>
<feComposite in2="hardAlpha" operator="out"/>
<feColorMatrix type="matrix" values="0 0 0 0 0.886275 0 0 0 0 0.909804 0 0 0 0 0.941176 0 0 0 0.15 0"/>
<feBlend mode="normal" in2="BackgroundImageFix" result="effect1_dropShadow_1_6269"/>
<feBlend mode="normal" in="SourceGraphic" in2="effect1_dropShadow_1_6269" result="shape"/>
<feColorMatrix in="SourceAlpha" type="matrix" values="0 0 0 0 0 0 0 0 0 0 0 0 0 0 0 0 0 0 127 0" result="hardAlpha"/>
<feOffset dy="1.41697"/>
<feGaussianBlur stdDeviation="1.41697"/>
<feComposite in2="hardAlpha" operator="arithmetic" k2="-1" k3="1"/>
<feColorMatrix type="matrix" values="0 0 0 0 0.392157 0 0 0 0 0.454902 0 0 0 0 0.545098 0 0 0 1 0"/>
<feBlend mode="normal" in2="shape" result="effect2_innerShadow_1_6269"/>
</filter>
<filter id="filter6_di_1_6269" x="68.4027" y="87.932" width="16.1911" height="14.4784" filterUnits="userSpaceOnUse" color-interpolation-filters="sRGB">
<feFlood flood-opacity="0" result="BackgroundImageFix"/>
<feColorMatrix in="SourceAlpha" type="matrix" values="0 0 0 0 0 0 0 0 0 0 0 0 0 0 0 0 0 0 127 0" result="hardAlpha"/>
<feOffset dy="1.41697"/>
<feGaussianBlur stdDeviation="0.708487"/>
<feComposite in2="hardAlpha" operator="out"/>
<feColorMatrix type="matrix" values="0 0 0 0 0.886275 0 0 0 0 0.909804 0 0 0 0 0.941176 0 0 0 0.3 0"/>
<feBlend mode="normal" in2="BackgroundImageFix" result="effect1_dropShadow_1_6269"/>
<feBlend mode="normal" in="SourceGraphic" in2="effect1_dropShadow_1_6269" result="shape"/>
<feColorMatrix in="SourceAlpha" type="matrix" values="0 0 0 0 0 0 0 0 0 0 0 0 0 0 0 0 0 0 127 0" result="hardAlpha"/>
<feOffset dy="1.41697"/>
<feGaussianBlur stdDeviation="1.41697"/>
<feComposite in2="hardAlpha" operator="arithmetic" k2="-1" k3="1"/>
<feColorMatrix type="matrix" values="0 0 0 0 0.392157 0 0 0 0 0.454902 0 0 0 0 0.545098 0 0 0 1 0"/>
<feBlend mode="normal" in2="shape" result="effect2_innerShadow_1_6269"/>
</filter>
<filter id="filter7_di_1_6269" x="42.4655" y="77.708" width="9.03341" height="9.49202" filterUnits="userSpaceOnUse" color-interpolation-filters="sRGB">
<feFlood flood-opacity="0" result="BackgroundImageFix"/>
<feColorMatrix in="SourceAlpha" type="matrix" values="0 0 0 0 0 0 0 0 0 0 0 0 0 0 0 0 0 0 127 0" result="hardAlpha"/>
<feOffset dy="1.41697"/>
<feGaussianBlur stdDeviation="0.708487"/>
<feComposite in2="hardAlpha" operator="out"/>
<feColorMatrix type="matrix" values="0 0 0 0 0.886275 0 0 0 0 0.909804 0 0 0 0 0.941176 0 0 0 0.7 0"/>
<feBlend mode="normal" in2="BackgroundImageFix" result="effect1_dropShadow_1_6269"/>
<feBlend mode="normal" in="SourceGraphic" in2="effect1_dropShadow_1_6269" result="shape"/>
<feColorMatrix in="SourceAlpha" type="matrix" values="0 0 0 0 0 0 0 0 0 0 0 0 0 0 0 0 0 0 127 0" result="hardAlpha"/>
<feOffset dy="1.41697"/>
<feGaussianBlur stdDeviation="1.41697"/>
<feComposite in2="hardAlpha" operator="arithmetic" k2="-1" k3="1"/>
<feColorMatrix type="matrix" values="0 0 0 0 0.392157 0 0 0 0 0.454902 0 0 0 0 0.545098 0 0 0 1 0"/>
<feBlend mode="normal" in2="shape" result="effect2_innerShadow_1_6269"/>
</filter>
<filter id="filter8_di_1_6269" x="29.689" y="87.5363" width="6.12771" height="5.70535" filterUnits="userSpaceOnUse" color-interpolation-filters="sRGB">
<feFlood flood-opacity="0" result="BackgroundImageFix"/>
<feColorMatrix in="SourceAlpha" type="matrix" values="0 0 0 0 0 0 0 0 0 0 0 0 0 0 0 0 0 0 127 0" result="hardAlpha"/>
<feOffset dy="1.41697"/>
<feGaussianBlur stdDeviation="0.708487"/>
<feComposite in2="hardAlpha" operator="out"/>
<feColorMatrix type="matrix" values="0 0 0 0 0.886275 0 0 0 0 0.909804 0 0 0 0 0.941176 0 0 0 0.2 0"/>
<feBlend mode="normal" in2="BackgroundImageFix" result="effect1_dropShadow_1_6269"/>
<feBlend mode="normal" in="SourceGraphic" in2="effect1_dropShadow_1_6269" result="shape"/>
<feColorMatrix in="SourceAlpha" type="matrix" values="0 0 0 0 0 0 0 0 0 0 0 0 0 0 0 0 0 0 127 0" result="hardAlpha"/>
<feOffset dy="1.41697"/>
<feGaussianBlur stdDeviation="1.41697"/>
<feComposite in2="hardAlpha" operator="arithmetic" k2="-1" k3="1"/>
<feColorMatrix type="matrix" values="0 0 0 0 0.392157 0 0 0 0 0.454902 0 0 0 0 0.545098 0 0 0 1 0"/>
<feBlend mode="normal" in2="shape" result="effect2_innerShadow_1_6269"/>
</filter>
<filter id="filter9_di_1_6269" x="101.257" y="65.5193" width="5.89175" height="5.95397" filterUnits="userSpaceOnUse" color-interpolation-filters="sRGB">
<feFlood flood-opacity="0" result="BackgroundImageFix"/>
<feColorMatrix in="SourceAlpha" type="matrix" values="0 0 0 0 0 0 0 0 0 0 0 0 0 0 0 0 0 0 127 0" result="hardAlpha"/>
<feOffset dy="1.41697"/>
<feGaussianBlur stdDeviation="0.708487"/>
<feComposite in2="hardAlpha" operator="out"/>
<feColorMatrix type="matrix" values="0 0 0 0 0.886275 0 0 0 0 0.909804 0 0 0 0 0.941176 0 0 0 0.2 0"/>
<feBlend mode="normal" in2="BackgroundImageFix" result="effect1_dropShadow_1_6269"/>
<feBlend mode="normal" in="SourceGraphic" in2="effect1_dropShadow_1_6269" result="shape"/>
<feColorMatrix in="SourceAlpha" type="matrix" values="0 0 0 0 0 0 0 0 0 0 0 0 0 0 0 0 0 0 127 0" result="hardAlpha"/>
<feOffset dy="1.41697"/>
<feGaussianBlur stdDeviation="1.41697"/>
<feComposite in2="hardAlpha" operator="arithmetic" k2="-1" k3="1"/>
<feColorMatrix type="matrix" values="0 0 0 0 0.392157 0 0 0 0 0.454902 0 0 0 0 0.545098 0 0 0 1 0"/>
<feBlend mode="normal" in2="shape" result="effect2_innerShadow_1_6269"/>
</filter>
<filter id="filter10_di_1_6269" x="92.8536" y="96.9771" width="5.89175" height="5.95397" filterUnits="userSpaceOnUse" color-interpolation-filters="sRGB">
<feFlood flood-opacity="0" result="BackgroundImageFix"/>
<feColorMatrix in="SourceAlpha" type="matrix" values="0 0 0 0 0 0 0 0 0 0 0 0 0 0 0 0 0 0 127 0" result="hardAlpha"/>
<feOffset dy="1.41697"/>
<feGaussianBlur stdDeviation="0.708487"/>
<feComposite in2="hardAlpha" operator="out"/>
<feColorMatrix type="matrix" values="0 0 0 0 0.886275 0 0 0 0 0.909804 0 0 0 0 0.941176 0 0 0 0.2 0"/>
<feBlend mode="normal" in2="BackgroundImageFix" result="effect1_dropShadow_1_6269"/>
<feBlend mode="normal" in="SourceGraphic" in2="effect1_dropShadow_1_6269" result="shape"/>
<feColorMatrix in="SourceAlpha" type="matrix" values="0 0 0 0 0 0 0 0 0 0 0 0 0 0 0 0 0 0 127 0" result="hardAlpha"/>
<feOffset dy="1.41697"/>
<feGaussianBlur stdDeviation="1.41697"/>
<feComposite in2="hardAlpha" operator="arithmetic" k2="-1" k3="1"/>
<feColorMatrix type="matrix" values="0 0 0 0 0.392157 0 0 0 0 0.454902 0 0 0 0 0.545098 0 0 0 1 0"/>
<feBlend mode="normal" in2="shape" result="effect2_innerShadow_1_6269"/>
</filter>
<filter id="filter11_di_1_6269" x="67.1326" y="40.137" width="6.12619" height="5.70704" filterUnits="userSpaceOnUse" color-interpolation-filters="sRGB">
<feFlood flood-opacity="0" result="BackgroundImageFix"/>
<feColorMatrix in="SourceAlpha" type="matrix" values="0 0 0 0 0 0 0 0 0 0 0 0 0 0 0 0 0 0 127 0" result="hardAlpha"/>
<feOffset dy="1.41697"/>
<feGaussianBlur stdDeviation="0.708487"/>
<feComposite in2="hardAlpha" operator="out"/>
<feColorMatrix type="matrix" values="0 0 0 0 0.886275 0 0 0 0 0.909804 0 0 0 0 0.941176 0 0 0 0.7 0"/>
<feBlend mode="normal" in2="BackgroundImageFix" result="effect1_dropShadow_1_6269"/>
<feBlend mode="normal" in="SourceGraphic" in2="effect1_dropShadow_1_6269" result="shape"/>
<feColorMatrix in="SourceAlpha" type="matrix" values="0 0 0 0 0 0 0 0 0 0 0 0 0 0 0 0 0 0 127 0" result="hardAlpha"/>
<feOffset dy="1.41697"/>
<feGaussianBlur stdDeviation="1.41697"/>
<feComposite in2="hardAlpha" operator="arithmetic" k2="-1" k3="1"/>
<feColorMatrix type="matrix" values="0 0 0 0 0.392157 0 0 0 0 0.454902 0 0 0 0 0.545098 0 0 0 1 0"/>
<feBlend mode="normal" in2="shape" result="effect2_innerShadow_1_6269"/>
</filter>
<filter id="filter12_di_1_6269" x="55.7999" y="62.8135" width="6.12619" height="5.70704" filterUnits="userSpaceOnUse" color-interpolation-filters="sRGB">
<feFlood flood-opacity="0" result="BackgroundImageFix"/>
<feColorMatrix in="SourceAlpha" type="matrix" values="0 0 0 0 0 0 0 0 0 0 0 0 0 0 0 0 0 0 127 0" result="hardAlpha"/>
<feOffset dy="1.41697"/>
<feGaussianBlur stdDeviation="0.708487"/>
<feComposite in2="hardAlpha" operator="out"/>
<feColorMatrix type="matrix" values="0 0 0 0 0.886275 0 0 0 0 0.909804 0 0 0 0 0.941176 0 0 0 0.7 0"/>
<feBlend mode="normal" in2="BackgroundImageFix" result="effect1_dropShadow_1_6269"/>
<feBlend mode="normal" in="SourceGraphic" in2="effect1_dropShadow_1_6269" result="shape"/>
<feColorMatrix in="SourceAlpha" type="matrix" values="0 0 0 0 0 0 0 0 0 0 0 0 0 0 0 0 0 0 127 0" result="hardAlpha"/>
<feOffset dy="1.41697"/>
<feGaussianBlur stdDeviation="1.41697"/>
<feComposite in2="hardAlpha" operator="arithmetic" k2="-1" k3="1"/>
<feColorMatrix type="matrix" values="0 0 0 0 0.392157 0 0 0 0 0.454902 0 0 0 0 0.545098 0 0 0 1 0"/>
<feBlend mode="normal" in2="shape" result="effect2_innerShadow_1_6269"/>
</filter>
<filter id="filter13_di_1_6269" x="90.0537" y="76.7431" width="5.63351" height="6.18778" filterUnits="userSpaceOnUse" color-interpolation-filters="sRGB">
<feFlood flood-opacity="0" result="BackgroundImageFix"/>
<feColorMatrix in="SourceAlpha" type="matrix" values="0 0 0 0 0 0 0 0 0 0 0 0 0 0 0 0 0 0 127 0" result="hardAlpha"/>
<feOffset dy="1.41697"/>
<feGaussianBlur stdDeviation="0.708487"/>
<feComposite in2="hardAlpha" operator="out"/>
<feColorMatrix type="matrix" values="0 0 0 0 0.886275 0 0 0 0 0.909804 0 0 0 0 0.941176 0 0 0 0.4 0"/>
<feBlend mode="normal" in2="BackgroundImageFix" result="effect1_dropShadow_1_6269"/>
<feBlend mode="normal" in="SourceGraphic" in2="effect1_dropShadow_1_6269" result="shape"/>
<feColorMatrix in="SourceAlpha" type="matrix" values="0 0 0 0 0 0 0 0 0 0 0 0 0 0 0 0 0 0 127 0" result="hardAlpha"/>
<feOffset dy="1.41697"/>
<feGaussianBlur stdDeviation="1.41697"/>
<feComposite in2="hardAlpha" operator="arithmetic" k2="-1" k3="1"/>
<feColorMatrix type="matrix" values="0 0 0 0 0.392157 0 0 0 0 0.454902 0 0 0 0 0.545098 0 0 0 1 0"/>
<feBlend mode="normal" in2="shape" result="effect2_innerShadow_1_6269"/>
</filter>
<filter id="filter14_di_1_6269" x="61.1779" y="85.128" width="5.63351" height="6.18778" filterUnits="userSpaceOnUse" color-interpolation-filters="sRGB">
<feFlood flood-opacity="0" result="BackgroundImageFix"/>
<feColorMatrix in="SourceAlpha" type="matrix" values="0 0 0 0 0 0 0 0 0 0 0 0 0 0 0 0 0 0 127 0" result="hardAlpha"/>
<feOffset dy="1.41697"/>
<feGaussianBlur stdDeviation="0.708487"/>
<feComposite in2="hardAlpha" operator="out"/>
<feColorMatrix type="matrix" values="0 0 0 0 0.886275 0 0 0 0 0.909804 0 0 0 0 0.941176 0 0 0 0.4 0"/>
<feBlend mode="normal" in2="BackgroundImageFix" result="effect1_dropShadow_1_6269"/>
<feBlend mode="normal" in="SourceGraphic" in2="effect1_dropShadow_1_6269" result="shape"/>
<feColorMatrix in="SourceAlpha" type="matrix" values="0 0 0 0 0 0 0 0 0 0 0 0 0 0 0 0 0 0 127 0" result="hardAlpha"/>
<feOffset dy="1.41697"/>
<feGaussianBlur stdDeviation="1.41697"/>
<feComposite in2="hardAlpha" operator="arithmetic" k2="-1" k3="1"/>
<feColorMatrix type="matrix" values="0 0 0 0 0.392157 0 0 0 0 0.454902 0 0 0 0 0.545098 0 0 0 1 0"/>
<feBlend mode="normal" in2="shape" result="effect2_innerShadow_1_6269"/>
</filter>
<filter id="filter15_di_1_6269" x="69.6797" y="110.634" width="5.63351" height="6.18777" filterUnits="userSpaceOnUse" color-interpolation-filters="sRGB">
<feFlood flood-opacity="0" result="BackgroundImageFix"/>
<feColorMatrix in="SourceAlpha" type="matrix" values="0 0 0 0 0 0 0 0 0 0 0 0 0 0 0 0 0 0 127 0" result="hardAlpha"/>
<feOffset dy="1.41697"/>
<feGaussianBlur stdDeviation="0.708487"/>
<feComposite in2="hardAlpha" operator="out"/>
<feColorMatrix type="matrix" values="0 0 0 0 0.886275 0 0 0 0 0.909804 0 0 0 0 0.941176 0 0 0 0.2 0"/>
<feBlend mode="normal" in2="BackgroundImageFix" result="effect1_dropShadow_1_6269"/>
<feBlend mode="normal" in="SourceGraphic" in2="effect1_dropShadow_1_6269" result="shape"/>
<feColorMatrix in="SourceAlpha" type="matrix" values="0 0 0 0 0 0 0 0 0 0 0 0 0 0 0 0 0 0 127 0" result="hardAlpha"/>
<feOffset dy="1.41697"/>
<feGaussianBlur stdDeviation="1.41697"/>
<feComposite in2="hardAlpha" operator="arithmetic" k2="-1" k3="1"/>
<feColorMatrix type="matrix" values="0 0 0 0 0.392157 0 0 0 0 0.454902 0 0 0 0 0.545098 0 0 0 1 0"/>
<feBlend mode="normal" in2="shape" result="effect2_innerShadow_1_6269"/>
</filter>
<filter id="filter16_f_1_6269" x="42.6275" y="124.694" width="113.358" height="42.5092" filterUnits="userSpaceOnUse" color-interpolation-filters="sRGB">
<feFlood flood-opacity="0" result="BackgroundImageFix"/>
<feBlend mode="normal" in="SourceGraphic" in2="BackgroundImageFix" result="shape"/>
<feGaussianBlur stdDeviation="2.83395" result="effect1_foregroundBlur_1_6269"/>
</filter>
<filter id="filter17_d_1_6269" x="25.6239" y="42.5092" width="153.033" height="107.69" filterUnits="userSpaceOnUse" color-interpolation-filters="sRGB">
<feFlood flood-opacity="0" result="BackgroundImageFix"/>
<feColorMatrix in="SourceAlpha" type="matrix" values="0 0 0 0 0 0 0 0 0 0 0 0 0 0 0 0 0 0 127 0" result="hardAlpha"/>
<feOffset dy="5.6679"/>
<feGaussianBlur stdDeviation="5.6679"/>
<feComposite in2="hardAlpha" operator="out"/>
<feColorMatrix type="matrix" values="0 0 0 0 0.278431 0 0 0 0 0.333333 0 0 0 0 0.411765 0 0 0 0.4 0"/>
<feBlend mode="normal" in2="BackgroundImageFix" result="effect1_dropShadow_1_6269"/>
<feBlend mode="normal" in="SourceGraphic" in2="effect1_dropShadow_1_6269" result="shape"/>
</filter>
<filter id="filter18_ii_1_6269" x="36.9597" y="76.5166" width="130.362" height="62.3469" filterUnits="userSpaceOnUse" color-interpolation-filters="sRGB">
<feFlood flood-opacity="0" result="BackgroundImageFix"/>
<feBlend mode="normal" in="SourceGraphic" in2="BackgroundImageFix" result="shape"/>
<feColorMatrix in="SourceAlpha" type="matrix" values="0 0 0 0 0 0 0 0 0 0 0 0 0 0 0 0 0 0 127 0" result="hardAlpha"/>
<feOffset dy="5.6679"/>
<feGaussianBlur stdDeviation="2.83395"/>
<feComposite in2="hardAlpha" operator="arithmetic" k2="-1" k3="1"/>
<feColorMatrix type="matrix" values="0 0 0 0 0.796078 0 0 0 0 0.835294 0 0 0 0 0.882353 0 0 0 1 0"/>
<feBlend mode="normal" in2="shape" result="effect1_innerShadow_1_6269"/>
<feColorMatrix in="SourceAlpha" type="matrix" values="0 0 0 0 0 0 0 0 0 0 0 0 0 0 0 0 0 0 127 0" result="hardAlpha"/>
<feOffset dy="-5.6679"/>
<feGaussianBlur stdDeviation="2.83395"/>
<feComposite in2="hardAlpha" operator="arithmetic" k2="-1" k3="1"/>
<feColorMatrix type="matrix" values="0 0 0 0 0.796078 0 0 0 0 0.835294 0 0 0 0 0.882353 0 0 0 0.6 0"/>
<feBlend mode="normal" in2="effect1_innerShadow_1_6269" result="effect2_innerShadow_1_6269"/>
</filter>
<filter id="filter19_f_1_6269" x="36.9596" y="93.5203" width="39.6753" height="39.6753" filterUnits="userSpaceOnUse" color-interpolation-filters="sRGB">
<feFlood flood-opacity="0" result="BackgroundImageFix"/>
<feBlend mode="normal" in="SourceGraphic" in2="BackgroundImageFix" result="shape"/>
<feGaussianBlur stdDeviation="2.83395" result="effect1_foregroundBlur_1_6269"/>
</filter>
<filter id="filter20_i_1_6269" x="53.9633" y="70.8487" width="45.3432" height="51.0111" filterUnits="userSpaceOnUse" color-interpolation-filters="sRGB">
<feFlood flood-opacity="0" result="BackgroundImageFix"/>
<feBlend mode="normal" in="SourceGraphic" in2="BackgroundImageFix" result="shape"/>
<feColorMatrix in="SourceAlpha" type="matrix" values="0 0 0 0 0 0 0 0 0 0 0 0 0 0 0 0 0 0 127 0" result="hardAlpha"/>
<feOffset dy="5.6679"/>
<feGaussianBlur stdDeviation="2.83395"/>
<feComposite in2="hardAlpha" operator="arithmetic" k2="-1" k3="1"/>
<feColorMatrix type="matrix" values="0 0 0 0 0.796078 0 0 0 0 0.835294 0 0 0 0 0.882353 0 0 0 1 0"/>
<feBlend mode="normal" in2="shape" result="effect1_innerShadow_1_6269"/>
</filter>
<filter id="filter21_f_1_6269" x="53.9633" y="70.8487" width="45.3432" height="39.6753" filterUnits="userSpaceOnUse" color-interpolation-filters="sRGB">
<feFlood flood-opacity="0" result="BackgroundImageFix"/>
<feBlend mode="normal" in="SourceGraphic" in2="BackgroundImageFix" result="shape"/>
<feGaussianBlur stdDeviation="2.83395" result="effect1_foregroundBlur_1_6269"/>
</filter>
<filter id="filter22_f_1_6269" x="124.812" y="85.0185" width="39.6753" height="39.6753" filterUnits="userSpaceOnUse" color-interpolation-filters="sRGB">
<feFlood flood-opacity="0" result="BackgroundImageFix"/>
<feBlend mode="normal" in="SourceGraphic" in2="BackgroundImageFix" result="shape"/>
<feGaussianBlur stdDeviation="2.83395" result="effect1_foregroundBlur_1_6269"/>
</filter>
<filter id="filter23_i_1_6269" x="79.4689" y="48.1771" width="70.8488" height="76.5166" filterUnits="userSpaceOnUse" color-interpolation-filters="sRGB">
<feFlood flood-opacity="0" result="BackgroundImageFix"/>
<feBlend mode="normal" in="SourceGraphic" in2="BackgroundImageFix" result="shape"/>
<feColorMatrix in="SourceAlpha" type="matrix" values="0 0 0 0 0 0 0 0 0 0 0 0 0 0 0 0 0 0 127 0" result="hardAlpha"/>
<feOffset dy="5.6679"/>
<feGaussianBlur stdDeviation="2.83395"/>
<feComposite in2="hardAlpha" operator="arithmetic" k2="-1" k3="1"/>
<feColorMatrix type="matrix" values="0 0 0 0 0.796078 0 0 0 0 0.835294 0 0 0 0 0.882353 0 0 0 1 0"/>
<feBlend mode="normal" in2="shape" result="effect1_innerShadow_1_6269"/>
</filter>
<filter id="filter24_f_1_6269" x="87.9707" y="48.1771" width="51.0111" height="39.6753" filterUnits="userSpaceOnUse" color-interpolation-filters="sRGB">
<feFlood flood-opacity="0" result="BackgroundImageFix"/>
<feBlend mode="normal" in="SourceGraphic" in2="BackgroundImageFix" result="shape"/>
<feGaussianBlur stdDeviation="2.83395" result="effect1_foregroundBlur_1_6269"/>
</filter>
<filter id="filter25_i_1_6269" x="76.6349" y="87.8524" width="51.0111" height="42.5092" filterUnits="userSpaceOnUse" color-interpolation-filters="sRGB">
<feFlood flood-opacity="0" result="BackgroundImageFix"/>
<feBlend mode="normal" in="SourceGraphic" in2="BackgroundImageFix" result="shape"/>
<feColorMatrix in="SourceAlpha" type="matrix" values="0 0 0 0 0 0 0 0 0 0 0 0 0 0 0 0 0 0 127 0" result="hardAlpha"/>
<feOffset dy="5.6679"/>
<feGaussianBlur stdDeviation="2.83395"/>
<feComposite in2="hardAlpha" operator="arithmetic" k2="-1" k3="1"/>
<feColorMatrix type="matrix" values="0 0 0 0 0.796078 0 0 0 0 0.835294 0 0 0 0 0.882353 0 0 0 0.6 0"/>
<feBlend mode="normal" in2="shape" result="effect1_innerShadow_1_6269"/>
</filter>
<filter id="filter26_f_1_6269" x="76.6349" y="87.8524" width="51.0111" height="36.8413" filterUnits="userSpaceOnUse" color-interpolation-filters="sRGB">
<feFlood flood-opacity="0" result="BackgroundImageFix"/>
<feBlend mode="normal" in="SourceGraphic" in2="BackgroundImageFix" result="shape"/>
<feGaussianBlur stdDeviation="2.83395" result="effect1_foregroundBlur_1_6269"/>
</filter>
<filter id="filter27_ii_1_6269" x="55.5447" y="142.912" width="11.8651" height="24.2908" filterUnits="userSpaceOnUse" color-interpolation-filters="sRGB">
<feFlood flood-opacity="0" result="BackgroundImageFix"/>
<feBlend mode="normal" in="SourceGraphic" in2="BackgroundImageFix" result="shape"/>
<feColorMatrix in="SourceAlpha" type="matrix" values="0 0 0 0 0 0 0 0 0 0 0 0 0 0 0 0 0 0 127 0" result="hardAlpha"/>
<feOffset dy="-2.83395"/>
<feComposite in2="hardAlpha" operator="arithmetic" k2="-1" k3="1"/>
<feColorMatrix type="matrix" values="0 0 0 0 0.231373 0 0 0 0 0.509804 0 0 0 0 0.964706 0 0 0 1 0"/>
<feBlend mode="normal" in2="shape" result="effect1_innerShadow_1_6269"/>
<feColorMatrix in="SourceAlpha" type="matrix" values="0 0 0 0 0 0 0 0 0 0 0 0 0 0 0 0 0 0 127 0" result="hardAlpha"/>
<feOffset dy="-1.41697"/>
<feGaussianBlur stdDeviation="0.708487"/>
<feComposite in2="hardAlpha" operator="arithmetic" k2="-1" k3="1"/>
<feColorMatrix type="matrix" values="0 0 0 0 0.113438 0 0 0 0 0.33625 0 0 0 0 0.825 0 0 0 1 0"/>
<feBlend mode="normal" in2="effect1_innerShadow_1_6269" result="effect2_innerShadow_1_6269"/>
</filter>
<filter id="filter28_ii_1_6269" x="73.9654" y="142.912" width="11.8651" height="24.2908" filterUnits="userSpaceOnUse" color-interpolation-filters="sRGB">
<feFlood flood-opacity="0" result="BackgroundImageFix"/>
<feBlend mode="normal" in="SourceGraphic" in2="BackgroundImageFix" result="shape"/>
<feColorMatrix in="SourceAlpha" type="matrix" values="0 0 0 0 0 0 0 0 0 0 0 0 0 0 0 0 0 0 127 0" result="hardAlpha"/>
<feOffset dy="-2.83395"/>
<feComposite in2="hardAlpha" operator="arithmetic" k2="-1" k3="1"/>
<feColorMatrix type="matrix" values="0 0 0 0 0.231373 0 0 0 0 0.509804 0 0 0 0 0.964706 0 0 0 1 0"/>
<feBlend mode="normal" in2="shape" result="effect1_innerShadow_1_6269"/>
<feColorMatrix in="SourceAlpha" type="matrix" values="0 0 0 0 0 0 0 0 0 0 0 0 0 0 0 0 0 0 127 0" result="hardAlpha"/>
<feOffset dy="-1.41697"/>
<feGaussianBlur stdDeviation="0.708487"/>
<feComposite in2="hardAlpha" operator="arithmetic" k2="-1" k3="1"/>
<feColorMatrix type="matrix" values="0 0 0 0 0.113438 0 0 0 0 0.33625 0 0 0 0 0.825 0 0 0 1 0"/>
<feBlend mode="normal" in2="effect1_innerShadow_1_6269" result="effect2_innerShadow_1_6269"/>
</filter>
<filter id="filter29_ii_1_6269" x="92.386" y="142.912" width="11.8651" height="24.2908" filterUnits="userSpaceOnUse" color-interpolation-filters="sRGB">
<feFlood flood-opacity="0" result="BackgroundImageFix"/>
<feBlend mode="normal" in="SourceGraphic" in2="BackgroundImageFix" result="shape"/>
<feColorMatrix in="SourceAlpha" type="matrix" values="0 0 0 0 0 0 0 0 0 0 0 0 0 0 0 0 0 0 127 0" result="hardAlpha"/>
<feOffset dy="-2.83395"/>
<feComposite in2="hardAlpha" operator="arithmetic" k2="-1" k3="1"/>
<feColorMatrix type="matrix" values="0 0 0 0 0.231373 0 0 0 0 0.509804 0 0 0 0 0.964706 0 0 0 1 0"/>
<feBlend mode="normal" in2="shape" result="effect1_innerShadow_1_6269"/>
<feColorMatrix in="SourceAlpha" type="matrix" values="0 0 0 0 0 0 0 0 0 0 0 0 0 0 0 0 0 0 127 0" result="hardAlpha"/>
<feOffset dy="-1.41697"/>
<feGaussianBlur stdDeviation="0.708487"/>
<feComposite in2="hardAlpha" operator="arithmetic" k2="-1" k3="1"/>
<feColorMatrix type="matrix" values="0 0 0 0 0.113438 0 0 0 0 0.33625 0 0 0 0 0.825 0 0 0 1 0"/>
<feBlend mode="normal" in2="effect1_innerShadow_1_6269" result="effect2_innerShadow_1_6269"/>
</filter>
<filter id="filter30_ii_1_6269" x="110.807" y="142.912" width="11.8651" height="24.2908" filterUnits="userSpaceOnUse" color-interpolation-filters="sRGB">
<feFlood flood-opacity="0" result="BackgroundImageFix"/>
<feBlend mode="normal" in="SourceGraphic" in2="BackgroundImageFix" result="shape"/>
<feColorMatrix in="SourceAlpha" type="matrix" values="0 0 0 0 0 0 0 0 0 0 0 0 0 0 0 0 0 0 127 0" result="hardAlpha"/>
<feOffset dy="-2.83395"/>
<feComposite in2="hardAlpha" operator="arithmetic" k2="-1" k3="1"/>
<feColorMatrix type="matrix" values="0 0 0 0 0.231373 0 0 0 0 0.509804 0 0 0 0 0.964706 0 0 0 1 0"/>
<feBlend mode="normal" in2="shape" result="effect1_innerShadow_1_6269"/>
<feColorMatrix in="SourceAlpha" type="matrix" values="0 0 0 0 0 0 0 0 0 0 0 0 0 0 0 0 0 0 127 0" result="hardAlpha"/>
<feOffset dy="-1.41697"/>
<feGaussianBlur stdDeviation="0.708487"/>
<feComposite in2="hardAlpha" operator="arithmetic" k2="-1" k3="1"/>
<feColorMatrix type="matrix" values="0 0 0 0 0.113438 0 0 0 0 0.33625 0 0 0 0 0.825 0 0 0 1 0"/>
<feBlend mode="normal" in2="effect1_innerShadow_1_6269" result="effect2_innerShadow_1_6269"/>
</filter>
<linearGradient id="paint0_linear_1_6269" x1="65.2991" y1="28.3381" x2="65.2991" y2="119.024" gradientUnits="userSpaceOnUse">
<stop stop-color="#E2E8F0"/>
<stop offset="1" stop-color="#64748B"/>
</linearGradient>
<linearGradient id="paint1_linear_1_6269" x1="65.299" y1="35.8955" x2="65.299" y2="73.6815" gradientUnits="userSpaceOnUse">
<stop stop-color="#F1F5F9"/>
<stop offset="1" stop-color="#E2E8F0" stop-opacity="0"/>
</linearGradient>
<linearGradient id="paint2_linear_1_6269" x1="99.3065" y1="130.362" x2="99.3065" y2="161.535" gradientUnits="userSpaceOnUse">
<stop stop-color="#A5B4FC"/>
<stop offset="1" stop-color="#818CF8" stop-opacity="0"/>
</linearGradient>
<linearGradient id="paint3_linear_1_6269" x1="56.7972" y1="99.1882" x2="56.7972" y2="127.528" gradientUnits="userSpaceOnUse">
<stop stop-color="white"/>
<stop offset="1" stop-color="#F3F3F3" stop-opacity="0.2"/>
</linearGradient>
<linearGradient id="paint4_linear_1_6269" x1="76.6349" y1="76.5166" x2="76.6349" y2="104.856" gradientUnits="userSpaceOnUse">
<stop stop-color="white"/>
<stop offset="1" stop-color="#F3F3F3" stop-opacity="0.2"/>
</linearGradient>
<linearGradient id="paint5_linear_1_6269" x1="144.65" y1="90.6864" x2="144.65" y2="119.026" gradientUnits="userSpaceOnUse">
<stop stop-color="white"/>
<stop offset="1" stop-color="#F3F3F3" stop-opacity="0.2"/>
</linearGradient>
<linearGradient id="paint6_linear_1_6269" x1="113.476" y1="53.845" x2="113.476" y2="82.1845" gradientUnits="userSpaceOnUse">
<stop stop-color="white"/>
<stop offset="1" stop-color="#F3F3F3" stop-opacity="0.2"/>
</linearGradient>
<linearGradient id="paint7_linear_1_6269" x1="102.14" y1="87.8524" x2="102.14" y2="124.694" gradientUnits="userSpaceOnUse">
<stop stop-color="#F1F5F9"/>
<stop offset="0.650321" stop-color="#F1F5F9" stop-opacity="0"/>
</linearGradient>
<linearGradient id="paint8_linear_1_6269" x1="102.14" y1="93.5203" x2="102.14" y2="119.026" gradientUnits="userSpaceOnUse">
<stop stop-color="white"/>
<stop offset="1" stop-color="#F3F3F3" stop-opacity="0.2"/>
</linearGradient>
<radialGradient id="paint9_radial_1_6269" cx="0" cy="0" r="1" gradientUnits="userSpaceOnUse" gradientTransform="translate(58.2143 165.786) rotate(-68.1986) scale(15.2613 15.2613)">
<stop stop-color="#74D5FF"/>
<stop offset="0.37551" stop-color="#74D5FF" stop-opacity="0"/>
</radialGradient>
<radialGradient id="paint10_radial_1_6269" cx="0" cy="0" r="1" gradientUnits="userSpaceOnUse" gradientTransform="translate(76.6349 165.786) rotate(-68.1986) scale(15.2613 15.2613)">
<stop stop-color="#74D5FF"/>
<stop offset="0.37551" stop-color="#74D5FF" stop-opacity="0"/>
</radialGradient>
<radialGradient id="paint11_radial_1_6269" cx="0" cy="0" r="1" gradientUnits="userSpaceOnUse" gradientTransform="translate(95.0556 165.786) rotate(-68.1986) scale(15.2613 15.2613)">
<stop stop-color="#74D5FF"/>
<stop offset="0.37551" stop-color="#74D5FF" stop-opacity="0"/>
</radialGradient>
<radialGradient id="paint12_radial_1_6269" cx="0" cy="0" r="1" gradientUnits="userSpaceOnUse" gradientTransform="translate(113.476 165.786) rotate(-68.1986) scale(15.2613 15.2613)">
<stop stop-color="#74D5FF"/>
<stop offset="0.37551" stop-color="#74D5FF" stop-opacity="0"/>
</radialGradient>
</defs>
</svg>
