<svg width="183" height="182" viewBox="0 0 183 182" fill="none" xmlns="http://www.w3.org/2000/svg">
<g filter="url(#filter0_f_1_6263)">
<path d="M49.1055 135.29C46.4727 124.447 40.3294 119.929 37.5869 119.026H139.609C135.221 123.996 129.736 130.953 129.736 135.29C129.736 139.627 130.833 147.037 133.027 150.199H45.8144C48.0085 149.748 51.7383 146.133 49.1055 135.29Z" fill="url(#paint0_linear_1_6263)"/>
</g>
<g filter="url(#filter1_d_1_6263)">
<path fill-rule="evenodd" clip-rule="evenodd" d="M139.609 72.3C139.609 72.2886 139.609 72.2771 139.609 72.2657C139.609 52.7014 123.749 36.8413 104.185 36.8413C88.9081 36.8413 75.8901 46.5113 70.9177 60.0642C69.3117 59.7033 67.6413 59.5129 65.9264 59.5129C53.4052 59.5129 43.2548 69.6633 43.2548 82.1845C43.2548 82.2515 43.2551 82.3184 43.2556 82.3853C33.6416 83.76 26.2511 92.028 26.2511 102.022C26.2511 112.978 35.1327 121.86 46.0887 121.86H131.107C145.194 121.86 156.613 110.441 156.613 96.3543C156.613 85.249 149.515 75.8014 139.609 72.3Z" fill="#64748B"/>
</g>
<g filter="url(#filter2_ii_1_6263)">
<path fill-rule="evenodd" clip-rule="evenodd" d="M156.613 96.3543C156.613 110.441 145.194 121.86 131.107 121.86L46.0887 121.86C35.1327 121.86 26.2511 112.978 26.2511 102.022C26.2511 91.0661 35.1327 82.1845 46.0887 82.1845C54.0022 82.1845 60.8335 86.8182 64.0173 93.5203H105.757C107.167 80.7677 117.979 70.8487 131.107 70.8487C145.194 70.8487 156.613 82.2679 156.613 96.3543Z" fill="#F1F5F9"/>
</g>
<g filter="url(#filter3_f_1_6263)">
<circle cx="46.0887" cy="102.022" r="14.1697" fill="url(#paint1_linear_1_6263)" style="mix-blend-mode:soft-light"/>
</g>
<g filter="url(#filter4_i_1_6263)">
<circle cx="65.9264" cy="82.1845" r="22.6716" fill="#F1F5F9"/>
</g>
<g filter="url(#filter5_f_1_6263)">
<ellipse cx="65.9264" cy="79.3506" rx="17.0037" ry="14.1697" fill="url(#paint2_linear_1_6263)" style="mix-blend-mode:soft-light"/>
</g>
<g filter="url(#filter6_f_1_6263)">
<circle cx="133.941" cy="93.5203" r="14.1697" fill="url(#paint3_linear_1_6263)" style="mix-blend-mode:soft-light"/>
</g>
<g filter="url(#filter7_i_1_6263)">
<circle cx="104.185" cy="72.2657" r="35.4244" fill="#F1F5F9"/>
</g>
<g filter="url(#filter8_f_1_6263)">
<ellipse cx="102.768" cy="56.679" rx="19.8376" ry="14.1697" fill="url(#paint4_linear_1_6263)" style="mix-blend-mode:soft-light"/>
</g>
<g filter="url(#filter9_i_1_6263)">
<ellipse cx="91.4319" cy="94.9373" rx="25.5055" ry="18.4207" fill="url(#paint5_linear_1_6263)"/>
</g>
<g filter="url(#filter10_f_1_6263)">
<ellipse cx="91.4319" cy="94.9373" rx="19.8376" ry="12.7528" fill="url(#paint6_linear_1_6263)" style="mix-blend-mode:soft-light"/>
</g>
<path fill-rule="evenodd" clip-rule="evenodd" d="M139.609 72.3C139.609 72.2886 139.609 72.2771 139.609 72.2657C139.609 52.7014 123.749 36.8413 104.185 36.8413C88.9081 36.8413 75.8901 46.5113 70.9177 60.0642C69.3117 59.7033 67.6413 59.5129 65.9264 59.5129C53.4052 59.5129 43.2548 69.6633 43.2548 82.1845C43.2548 82.2515 43.2551 82.3184 43.2556 82.3853C33.6416 83.76 26.2511 92.028 26.2511 102.022C26.2511 112.978 35.1327 121.86 46.0887 121.86H131.107C145.194 121.86 156.613 110.441 156.613 96.3543C156.613 85.249 149.515 75.8014 139.609 72.3Z" fill="#93C5FD" style="mix-blend-mode:color"/>
<path fill-rule="evenodd" clip-rule="evenodd" d="M139.609 72.3C139.609 72.2886 139.609 72.2771 139.609 72.2657C139.609 52.7014 123.749 36.8413 104.185 36.8413C88.9081 36.8413 75.8901 46.5113 70.9177 60.0642C69.3117 59.7033 67.6413 59.5129 65.9264 59.5129C53.4052 59.5129 43.2548 69.6633 43.2548 82.1845C43.2548 82.2515 43.2551 82.3184 43.2556 82.3853C33.6416 83.76 26.2511 92.028 26.2511 102.022C26.2511 112.978 35.1327 121.86 46.0887 121.86H131.107C145.194 121.86 156.613 110.441 156.613 96.3543C156.613 85.249 149.515 75.8014 139.609 72.3Z" fill="#93C5FD" fill-opacity="0.2" style="mix-blend-mode:multiply"/>
<g filter="url(#filter11_dii_1_6263)">
<path fill-rule="evenodd" clip-rule="evenodd" d="M57.5132 133.196V138.206L61.8522 135.701C63.2076 134.918 64.9408 135.383 65.7234 136.738C66.506 138.094 66.0416 139.827 64.6861 140.609L64.6826 140.611L60.3471 143.115L64.6816 145.617C64.6831 145.618 64.6846 145.619 64.6861 145.62C66.0416 146.402 66.506 148.136 65.7234 149.491C64.9408 150.846 63.2076 151.311 61.8522 150.528L57.5132 148.023V153.033C57.5132 154.598 56.2444 155.867 54.6792 155.867C53.1141 155.867 51.8453 154.598 51.8453 153.033V148.023L47.5062 150.528L47.5062 150.528L47.5062 150.528C46.1507 151.311 44.4175 150.846 43.6349 149.491C42.8523 148.136 43.3168 146.402 44.6722 145.62L44.6813 145.615L49.0113 143.115L44.682 140.615C44.6788 140.613 44.6755 140.611 44.6722 140.609C43.3168 139.827 42.8523 138.094 43.6349 136.738C44.4175 135.383 46.1507 134.918 47.5062 135.701C47.5062 135.701 47.5062 135.701 47.5062 135.701L47.5062 135.701L51.8453 138.206V133.196C51.8453 131.63 53.1141 130.362 54.6792 130.362C56.2444 130.362 57.5132 131.63 57.5132 133.196Z" fill="#E2E8F0"/>
</g>
<g style="mix-blend-mode:color">
<path fill-rule="evenodd" clip-rule="evenodd" d="M57.5132 133.196V138.206L61.8522 135.701C63.2076 134.918 64.9408 135.383 65.7234 136.738C66.506 138.094 66.0416 139.827 64.6861 140.609L64.6826 140.611L60.3471 143.115L64.6816 145.617C64.6831 145.618 64.6846 145.619 64.6861 145.62C66.0416 146.402 66.506 148.136 65.7234 149.491C64.9408 150.846 63.2076 151.311 61.8522 150.528L57.5132 148.023V153.033C57.5132 154.598 56.2444 155.867 54.6792 155.867C53.1141 155.867 51.8453 154.598 51.8453 153.033V148.023L47.5062 150.528L47.5062 150.528L47.5062 150.528C46.1507 151.311 44.4175 150.846 43.6349 149.491C42.8523 148.136 43.3168 146.402 44.6722 145.62L44.6813 145.615L49.0113 143.115L44.682 140.615C44.6788 140.613 44.6755 140.611 44.6722 140.609C43.3168 139.827 42.8523 138.094 43.6349 136.738C44.4175 135.383 46.1507 134.918 47.5062 135.701C47.5062 135.701 47.5062 135.701 47.5062 135.701L47.5062 135.701L51.8453 138.206V133.196C51.8453 131.63 53.1141 130.362 54.6792 130.362C56.2444 130.362 57.5132 131.63 57.5132 133.196Z" fill="#BFDBFE"/>
</g>
<circle cx="54.6874" cy="133.337" r="2.12546" fill="url(#paint7_linear_1_6263)"/>
<circle cx="46.1856" cy="138.155" r="2.12546" fill="url(#paint8_linear_1_6263)"/>
<circle cx="46.1856" cy="148.074" r="2.12546" fill="url(#paint9_linear_1_6263)"/>
<circle cx="63.1893" cy="138.155" r="2.12546" fill="url(#paint10_linear_1_6263)"/>
<circle cx="63.1893" cy="148.074" r="2.12546" fill="url(#paint11_linear_1_6263)"/>
<g filter="url(#filter12_dii_1_6263)">
<path fill-rule="evenodd" clip-rule="evenodd" d="M85.8527 133.196V138.206L90.1916 135.701C91.5471 134.918 93.2803 135.383 94.0629 136.738C94.8455 138.094 94.381 139.827 93.0256 140.609L93.0221 140.611L88.6866 143.115L93.0211 145.617C93.0226 145.618 93.0241 145.619 93.0256 145.62C94.381 146.402 94.8455 148.136 94.0629 149.491C93.2803 150.846 91.5471 151.311 90.1916 150.528L85.8527 148.023V153.033C85.8527 154.598 84.5839 155.867 83.0187 155.867C81.4536 155.867 80.1848 154.598 80.1848 153.033V148.023L75.8457 150.528L75.8457 150.528L75.8456 150.528C74.4902 151.311 72.757 150.846 71.9744 149.491C71.1918 148.136 71.6562 146.402 73.0117 145.62L73.0207 145.615L77.3508 143.115L73.0215 140.615C73.0182 140.613 73.0149 140.611 73.0117 140.609C71.6562 139.827 71.1918 138.094 71.9744 136.738C72.757 135.383 74.4902 134.918 75.8456 135.701C75.8456 135.701 75.8457 135.701 75.8457 135.701L75.8457 135.701L80.1848 138.206V133.196C80.1848 131.63 81.4536 130.362 83.0187 130.362C84.5839 130.362 85.8527 131.63 85.8527 133.196Z" fill="#E2E8F0"/>
</g>
<g style="mix-blend-mode:color">
<path fill-rule="evenodd" clip-rule="evenodd" d="M85.8527 133.196V138.206L90.1916 135.701C91.5471 134.918 93.2803 135.383 94.0629 136.738C94.8455 138.094 94.381 139.827 93.0256 140.609L93.0221 140.611L88.6866 143.115L93.0211 145.617C93.0226 145.618 93.0241 145.619 93.0256 145.62C94.381 146.402 94.8455 148.136 94.0629 149.491C93.2803 150.846 91.5471 151.311 90.1916 150.528L85.8527 148.023V153.033C85.8527 154.598 84.5839 155.867 83.0187 155.867C81.4536 155.867 80.1848 154.598 80.1848 153.033V148.023L75.8457 150.528L75.8457 150.528L75.8456 150.528C74.4902 151.311 72.757 150.846 71.9744 149.491C71.1918 148.136 71.6562 146.402 73.0117 145.62L73.0207 145.615L77.3508 143.115L73.0215 140.615C73.0182 140.613 73.0149 140.611 73.0117 140.609C71.6562 139.827 71.1918 138.094 71.9744 136.738C72.757 135.383 74.4902 134.918 75.8456 135.701C75.8456 135.701 75.8457 135.701 75.8457 135.701L75.8457 135.701L80.1848 138.206V133.196C80.1848 131.63 81.4536 130.362 83.0187 130.362C84.5839 130.362 85.8527 131.63 85.8527 133.196Z" fill="#BFDBFE"/>
</g>
<circle cx="83.0269" cy="133.337" r="2.12546" fill="url(#paint12_linear_1_6263)"/>
<circle cx="74.5251" cy="138.155" r="2.12546" fill="url(#paint13_linear_1_6263)"/>
<circle cx="74.5251" cy="148.074" r="2.12546" fill="url(#paint14_linear_1_6263)"/>
<circle cx="91.5288" cy="138.155" r="2.12546" fill="url(#paint15_linear_1_6263)"/>
<circle cx="91.5288" cy="148.074" r="2.12546" fill="url(#paint16_linear_1_6263)"/>
<g clip-path="url(#clip0_1_6263)">
<g filter="url(#filter13_df_1_6263)">
<path d="M51.7566 150.199L67.068 144.795C72.6917 142.81 78.871 143.121 84.267 145.661L90.2802 148.49C96.3943 151.368 103.473 151.368 109.587 148.49L115.6 145.661C120.996 143.121 127.176 142.81 132.799 144.795L148.111 150.199" stroke="#F1F5F9" stroke-width="5.6679" stroke-linecap="round"/>
</g>
<g filter="url(#filter14_df_1_6263)">
<path d="M51.7566 136.03L67.068 130.626C72.6917 128.641 78.871 128.952 84.267 131.491L90.2802 134.321C96.3943 137.198 103.473 137.198 109.587 134.321L115.6 131.491C120.996 128.952 127.176 128.641 132.799 130.626L148.111 136.03" stroke="#F1F5F9" stroke-width="5.6679" stroke-linecap="round"/>
</g>
</g>
<defs>
<filter id="filter0_f_1_6263" x="31.919" y="113.358" width="113.358" height="42.5092" filterUnits="userSpaceOnUse" color-interpolation-filters="sRGB">
<feFlood flood-opacity="0" result="BackgroundImageFix"/>
<feBlend mode="normal" in="SourceGraphic" in2="BackgroundImageFix" result="shape"/>
<feGaussianBlur stdDeviation="2.83395" result="effect1_foregroundBlur_1_6263"/>
</filter>
<filter id="filter1_d_1_6263" x="14.9153" y="31.1734" width="153.033" height="107.69" filterUnits="userSpaceOnUse" color-interpolation-filters="sRGB">
<feFlood flood-opacity="0" result="BackgroundImageFix"/>
<feColorMatrix in="SourceAlpha" type="matrix" values="0 0 0 0 0 0 0 0 0 0 0 0 0 0 0 0 0 0 127 0" result="hardAlpha"/>
<feOffset dy="5.6679"/>
<feGaussianBlur stdDeviation="5.6679"/>
<feComposite in2="hardAlpha" operator="out"/>
<feColorMatrix type="matrix" values="0 0 0 0 0.278431 0 0 0 0 0.333333 0 0 0 0 0.411765 0 0 0 0.4 0"/>
<feBlend mode="normal" in2="BackgroundImageFix" result="effect1_dropShadow_1_6263"/>
<feBlend mode="normal" in="SourceGraphic" in2="effect1_dropShadow_1_6263" result="shape"/>
</filter>
<filter id="filter2_ii_1_6263" x="26.2511" y="65.1808" width="130.362" height="62.3469" filterUnits="userSpaceOnUse" color-interpolation-filters="sRGB">
<feFlood flood-opacity="0" result="BackgroundImageFix"/>
<feBlend mode="normal" in="SourceGraphic" in2="BackgroundImageFix" result="shape"/>
<feColorMatrix in="SourceAlpha" type="matrix" values="0 0 0 0 0 0 0 0 0 0 0 0 0 0 0 0 0 0 127 0" result="hardAlpha"/>
<feOffset dy="5.6679"/>
<feGaussianBlur stdDeviation="2.83395"/>
<feComposite in2="hardAlpha" operator="arithmetic" k2="-1" k3="1"/>
<feColorMatrix type="matrix" values="0 0 0 0 0.796078 0 0 0 0 0.835294 0 0 0 0 0.882353 0 0 0 1 0"/>
<feBlend mode="normal" in2="shape" result="effect1_innerShadow_1_6263"/>
<feColorMatrix in="SourceAlpha" type="matrix" values="0 0 0 0 0 0 0 0 0 0 0 0 0 0 0 0 0 0 127 0" result="hardAlpha"/>
<feOffset dy="-5.6679"/>
<feGaussianBlur stdDeviation="2.83395"/>
<feComposite in2="hardAlpha" operator="arithmetic" k2="-1" k3="1"/>
<feColorMatrix type="matrix" values="0 0 0 0 0.796078 0 0 0 0 0.835294 0 0 0 0 0.882353 0 0 0 0.6 0"/>
<feBlend mode="normal" in2="effect1_innerShadow_1_6263" result="effect2_innerShadow_1_6263"/>
</filter>
<filter id="filter3_f_1_6263" x="26.251" y="82.1845" width="39.6753" height="39.6753" filterUnits="userSpaceOnUse" color-interpolation-filters="sRGB">
<feFlood flood-opacity="0" result="BackgroundImageFix"/>
<feBlend mode="normal" in="SourceGraphic" in2="BackgroundImageFix" result="shape"/>
<feGaussianBlur stdDeviation="2.83395" result="effect1_foregroundBlur_1_6263"/>
</filter>
<filter id="filter4_i_1_6263" x="43.2548" y="59.5129" width="45.3432" height="51.0111" filterUnits="userSpaceOnUse" color-interpolation-filters="sRGB">
<feFlood flood-opacity="0" result="BackgroundImageFix"/>
<feBlend mode="normal" in="SourceGraphic" in2="BackgroundImageFix" result="shape"/>
<feColorMatrix in="SourceAlpha" type="matrix" values="0 0 0 0 0 0 0 0 0 0 0 0 0 0 0 0 0 0 127 0" result="hardAlpha"/>
<feOffset dy="5.6679"/>
<feGaussianBlur stdDeviation="2.83395"/>
<feComposite in2="hardAlpha" operator="arithmetic" k2="-1" k3="1"/>
<feColorMatrix type="matrix" values="0 0 0 0 0.796078 0 0 0 0 0.835294 0 0 0 0 0.882353 0 0 0 1 0"/>
<feBlend mode="normal" in2="shape" result="effect1_innerShadow_1_6263"/>
</filter>
<filter id="filter5_f_1_6263" x="43.2548" y="59.5129" width="45.3432" height="39.6753" filterUnits="userSpaceOnUse" color-interpolation-filters="sRGB">
<feFlood flood-opacity="0" result="BackgroundImageFix"/>
<feBlend mode="normal" in="SourceGraphic" in2="BackgroundImageFix" result="shape"/>
<feGaussianBlur stdDeviation="2.83395" result="effect1_foregroundBlur_1_6263"/>
</filter>
<filter id="filter6_f_1_6263" x="114.103" y="73.6827" width="39.6753" height="39.6753" filterUnits="userSpaceOnUse" color-interpolation-filters="sRGB">
<feFlood flood-opacity="0" result="BackgroundImageFix"/>
<feBlend mode="normal" in="SourceGraphic" in2="BackgroundImageFix" result="shape"/>
<feGaussianBlur stdDeviation="2.83395" result="effect1_foregroundBlur_1_6263"/>
</filter>
<filter id="filter7_i_1_6263" x="68.7603" y="36.8413" width="70.8487" height="76.5166" filterUnits="userSpaceOnUse" color-interpolation-filters="sRGB">
<feFlood flood-opacity="0" result="BackgroundImageFix"/>
<feBlend mode="normal" in="SourceGraphic" in2="BackgroundImageFix" result="shape"/>
<feColorMatrix in="SourceAlpha" type="matrix" values="0 0 0 0 0 0 0 0 0 0 0 0 0 0 0 0 0 0 127 0" result="hardAlpha"/>
<feOffset dy="5.6679"/>
<feGaussianBlur stdDeviation="2.83395"/>
<feComposite in2="hardAlpha" operator="arithmetic" k2="-1" k3="1"/>
<feColorMatrix type="matrix" values="0 0 0 0 0.796078 0 0 0 0 0.835294 0 0 0 0 0.882353 0 0 0 1 0"/>
<feBlend mode="normal" in2="shape" result="effect1_innerShadow_1_6263"/>
</filter>
<filter id="filter8_f_1_6263" x="77.2622" y="36.8413" width="51.0111" height="39.6753" filterUnits="userSpaceOnUse" color-interpolation-filters="sRGB">
<feFlood flood-opacity="0" result="BackgroundImageFix"/>
<feBlend mode="normal" in="SourceGraphic" in2="BackgroundImageFix" result="shape"/>
<feGaussianBlur stdDeviation="2.83395" result="effect1_foregroundBlur_1_6263"/>
</filter>
<filter id="filter9_i_1_6263" x="65.9263" y="76.5166" width="51.0111" height="42.5092" filterUnits="userSpaceOnUse" color-interpolation-filters="sRGB">
<feFlood flood-opacity="0" result="BackgroundImageFix"/>
<feBlend mode="normal" in="SourceGraphic" in2="BackgroundImageFix" result="shape"/>
<feColorMatrix in="SourceAlpha" type="matrix" values="0 0 0 0 0 0 0 0 0 0 0 0 0 0 0 0 0 0 127 0" result="hardAlpha"/>
<feOffset dy="5.6679"/>
<feGaussianBlur stdDeviation="2.83395"/>
<feComposite in2="hardAlpha" operator="arithmetic" k2="-1" k3="1"/>
<feColorMatrix type="matrix" values="0 0 0 0 0.796078 0 0 0 0 0.835294 0 0 0 0 0.882353 0 0 0 0.6 0"/>
<feBlend mode="normal" in2="shape" result="effect1_innerShadow_1_6263"/>
</filter>
<filter id="filter10_f_1_6263" x="65.9263" y="76.5166" width="51.0111" height="36.8414" filterUnits="userSpaceOnUse" color-interpolation-filters="sRGB">
<feFlood flood-opacity="0" result="BackgroundImageFix"/>
<feBlend mode="normal" in="SourceGraphic" in2="BackgroundImageFix" result="shape"/>
<feGaussianBlur stdDeviation="2.83395" result="effect1_foregroundBlur_1_6263"/>
</filter>
<filter id="filter11_dii_1_6263" x="34.7529" y="124.694" width="39.8525" height="42.5092" filterUnits="userSpaceOnUse" color-interpolation-filters="sRGB">
<feFlood flood-opacity="0" result="BackgroundImageFix"/>
<feColorMatrix in="SourceAlpha" type="matrix" values="0 0 0 0 0 0 0 0 0 0 0 0 0 0 0 0 0 0 127 0" result="hardAlpha"/>
<feOffset dy="2.83395"/>
<feGaussianBlur stdDeviation="4.25092"/>
<feComposite in2="hardAlpha" operator="out"/>
<feColorMatrix type="matrix" values="0 0 0 0 0.278431 0 0 0 0 0.333333 0 0 0 0 0.411765 0 0 0 0.3 0"/>
<feBlend mode="normal" in2="BackgroundImageFix" result="effect1_dropShadow_1_6263"/>
<feBlend mode="normal" in="SourceGraphic" in2="effect1_dropShadow_1_6263" result="shape"/>
<feColorMatrix in="SourceAlpha" type="matrix" values="0 0 0 0 0 0 0 0 0 0 0 0 0 0 0 0 0 0 127 0" result="hardAlpha"/>
<feOffset dy="1.41697"/>
<feGaussianBlur stdDeviation="0.708487"/>
<feComposite in2="hardAlpha" operator="arithmetic" k2="-1" k3="1"/>
<feColorMatrix type="matrix" values="0 0 0 0 0.580392 0 0 0 0 0.639216 0 0 0 0 0.721569 0 0 0 1 0"/>
<feBlend mode="normal" in2="shape" result="effect2_innerShadow_1_6263"/>
<feColorMatrix in="SourceAlpha" type="matrix" values="0 0 0 0 0 0 0 0 0 0 0 0 0 0 0 0 0 0 127 0" result="hardAlpha"/>
<feOffset dy="-1.41697"/>
<feGaussianBlur stdDeviation="0.708487"/>
<feComposite in2="hardAlpha" operator="arithmetic" k2="-1" k3="1"/>
<feColorMatrix type="matrix" values="0 0 0 0 0.580392 0 0 0 0 0.639216 0 0 0 0 0.721569 0 0 0 1 0"/>
<feBlend mode="normal" in2="effect2_innerShadow_1_6263" result="effect3_innerShadow_1_6263"/>
</filter>
<filter id="filter12_dii_1_6263" x="63.0924" y="124.694" width="39.8525" height="42.5092" filterUnits="userSpaceOnUse" color-interpolation-filters="sRGB">
<feFlood flood-opacity="0" result="BackgroundImageFix"/>
<feColorMatrix in="SourceAlpha" type="matrix" values="0 0 0 0 0 0 0 0 0 0 0 0 0 0 0 0 0 0 127 0" result="hardAlpha"/>
<feOffset dy="2.83395"/>
<feGaussianBlur stdDeviation="4.25092"/>
<feComposite in2="hardAlpha" operator="out"/>
<feColorMatrix type="matrix" values="0 0 0 0 0.278431 0 0 0 0 0.333333 0 0 0 0 0.411765 0 0 0 0.3 0"/>
<feBlend mode="normal" in2="BackgroundImageFix" result="effect1_dropShadow_1_6263"/>
<feBlend mode="normal" in="SourceGraphic" in2="effect1_dropShadow_1_6263" result="shape"/>
<feColorMatrix in="SourceAlpha" type="matrix" values="0 0 0 0 0 0 0 0 0 0 0 0 0 0 0 0 0 0 127 0" result="hardAlpha"/>
<feOffset dy="1.41697"/>
<feGaussianBlur stdDeviation="0.708487"/>
<feComposite in2="hardAlpha" operator="arithmetic" k2="-1" k3="1"/>
<feColorMatrix type="matrix" values="0 0 0 0 0.580392 0 0 0 0 0.639216 0 0 0 0 0.721569 0 0 0 1 0"/>
<feBlend mode="normal" in2="shape" result="effect2_innerShadow_1_6263"/>
<feColorMatrix in="SourceAlpha" type="matrix" values="0 0 0 0 0 0 0 0 0 0 0 0 0 0 0 0 0 0 127 0" result="hardAlpha"/>
<feOffset dy="-1.41697"/>
<feGaussianBlur stdDeviation="0.708487"/>
<feComposite in2="hardAlpha" operator="arithmetic" k2="-1" k3="1"/>
<feColorMatrix type="matrix" values="0 0 0 0 0.580392 0 0 0 0 0.639216 0 0 0 0 0.721569 0 0 0 1 0"/>
<feBlend mode="normal" in2="effect2_innerShadow_1_6263" result="effect3_innerShadow_1_6263"/>
</filter>
<filter id="filter13_df_1_6263" x="37.5861" y="129.333" width="124.695" height="35.4851" filterUnits="userSpaceOnUse" color-interpolation-filters="sRGB">
<feFlood flood-opacity="0" result="BackgroundImageFix"/>
<feColorMatrix in="SourceAlpha" type="matrix" values="0 0 0 0 0 0 0 0 0 0 0 0 0 0 0 0 0 0 127 0" result="hardAlpha"/>
<feOffset/>
<feGaussianBlur stdDeviation="5.6679"/>
<feComposite in2="hardAlpha" operator="out"/>
<feColorMatrix type="matrix" values="0 0 0 0 0.580392 0 0 0 0 0.639216 0 0 0 0 0.721569 0 0 0 1 0"/>
<feBlend mode="normal" in2="BackgroundImageFix" result="effect1_dropShadow_1_6263"/>
<feBlend mode="normal" in="SourceGraphic" in2="effect1_dropShadow_1_6263" result="shape"/>
<feGaussianBlur stdDeviation="1.41697" result="effect2_foregroundBlur_1_6263"/>
</filter>
<filter id="filter14_df_1_6263" x="37.5861" y="115.163" width="124.695" height="35.4851" filterUnits="userSpaceOnUse" color-interpolation-filters="sRGB">
<feFlood flood-opacity="0" result="BackgroundImageFix"/>
<feColorMatrix in="SourceAlpha" type="matrix" values="0 0 0 0 0 0 0 0 0 0 0 0 0 0 0 0 0 0 127 0" result="hardAlpha"/>
<feOffset/>
<feGaussianBlur stdDeviation="5.6679"/>
<feComposite in2="hardAlpha" operator="out"/>
<feColorMatrix type="matrix" values="0 0 0 0 0.580392 0 0 0 0 0.639216 0 0 0 0 0.721569 0 0 0 1 0"/>
<feBlend mode="normal" in2="BackgroundImageFix" result="effect1_dropShadow_1_6263"/>
<feBlend mode="normal" in="SourceGraphic" in2="effect1_dropShadow_1_6263" result="shape"/>
<feGaussianBlur stdDeviation="1.41697" result="effect2_foregroundBlur_1_6263"/>
</filter>
<linearGradient id="paint0_linear_1_6263" x1="88.5979" y1="119.026" x2="88.5979" y2="150.199" gradientUnits="userSpaceOnUse">
<stop stop-color="#BAE6FD"/>
<stop offset="1" stop-color="#BAE6FD" stop-opacity="0"/>
</linearGradient>
<linearGradient id="paint1_linear_1_6263" x1="46.0887" y1="87.8524" x2="46.0887" y2="116.192" gradientUnits="userSpaceOnUse">
<stop stop-color="white"/>
<stop offset="1" stop-color="#F3F3F3" stop-opacity="0.2"/>
</linearGradient>
<linearGradient id="paint2_linear_1_6263" x1="65.9264" y1="65.1808" x2="65.9264" y2="93.5203" gradientUnits="userSpaceOnUse">
<stop stop-color="white"/>
<stop offset="1" stop-color="#F3F3F3" stop-opacity="0.2"/>
</linearGradient>
<linearGradient id="paint3_linear_1_6263" x1="133.941" y1="79.3506" x2="133.941" y2="107.69" gradientUnits="userSpaceOnUse">
<stop stop-color="white"/>
<stop offset="1" stop-color="#F3F3F3" stop-opacity="0.2"/>
</linearGradient>
<linearGradient id="paint4_linear_1_6263" x1="102.768" y1="42.5092" x2="102.768" y2="70.8487" gradientUnits="userSpaceOnUse">
<stop stop-color="white"/>
<stop offset="1" stop-color="#F3F3F3" stop-opacity="0.2"/>
</linearGradient>
<linearGradient id="paint5_linear_1_6263" x1="91.4319" y1="76.5166" x2="91.4319" y2="113.358" gradientUnits="userSpaceOnUse">
<stop stop-color="#F1F5F9"/>
<stop offset="0.650321" stop-color="#F1F5F9" stop-opacity="0"/>
</linearGradient>
<linearGradient id="paint6_linear_1_6263" x1="91.4319" y1="82.1845" x2="91.4319" y2="107.69" gradientUnits="userSpaceOnUse">
<stop stop-color="white"/>
<stop offset="1" stop-color="#F3F3F3" stop-opacity="0.2"/>
</linearGradient>
<linearGradient id="paint7_linear_1_6263" x1="54.6874" y1="131.212" x2="54.6874" y2="135.463" gradientUnits="userSpaceOnUse">
<stop stop-color="#E2E8F0"/>
<stop offset="1" stop-color="#E2E8F0" stop-opacity="0"/>
</linearGradient>
<linearGradient id="paint8_linear_1_6263" x1="46.1856" y1="136.03" x2="46.1856" y2="140.28" gradientUnits="userSpaceOnUse">
<stop stop-color="#E2E8F0"/>
<stop offset="1" stop-color="#E2E8F0" stop-opacity="0"/>
</linearGradient>
<linearGradient id="paint9_linear_1_6263" x1="46.1856" y1="145.948" x2="46.1856" y2="150.199" gradientUnits="userSpaceOnUse">
<stop stop-color="#E2E8F0"/>
<stop offset="1" stop-color="#E2E8F0" stop-opacity="0"/>
</linearGradient>
<linearGradient id="paint10_linear_1_6263" x1="63.1893" y1="136.03" x2="63.1893" y2="140.28" gradientUnits="userSpaceOnUse">
<stop stop-color="#E2E8F0"/>
<stop offset="1" stop-color="#E2E8F0" stop-opacity="0"/>
</linearGradient>
<linearGradient id="paint11_linear_1_6263" x1="63.1893" y1="145.948" x2="63.1893" y2="150.199" gradientUnits="userSpaceOnUse">
<stop stop-color="#E2E8F0"/>
<stop offset="1" stop-color="#E2E8F0" stop-opacity="0"/>
</linearGradient>
<linearGradient id="paint12_linear_1_6263" x1="83.0269" y1="131.212" x2="83.0269" y2="135.463" gradientUnits="userSpaceOnUse">
<stop stop-color="#E2E8F0"/>
<stop offset="1" stop-color="#E2E8F0" stop-opacity="0"/>
</linearGradient>
<linearGradient id="paint13_linear_1_6263" x1="74.5251" y1="136.03" x2="74.5251" y2="140.28" gradientUnits="userSpaceOnUse">
<stop stop-color="#E2E8F0"/>
<stop offset="1" stop-color="#E2E8F0" stop-opacity="0"/>
</linearGradient>
<linearGradient id="paint14_linear_1_6263" x1="74.5251" y1="145.948" x2="74.5251" y2="150.199" gradientUnits="userSpaceOnUse">
<stop stop-color="#E2E8F0"/>
<stop offset="1" stop-color="#E2E8F0" stop-opacity="0"/>
</linearGradient>
<linearGradient id="paint15_linear_1_6263" x1="91.5288" y1="136.03" x2="91.5288" y2="140.28" gradientUnits="userSpaceOnUse">
<stop stop-color="#E2E8F0"/>
<stop offset="1" stop-color="#E2E8F0" stop-opacity="0"/>
</linearGradient>
<linearGradient id="paint16_linear_1_6263" x1="91.5288" y1="145.948" x2="91.5288" y2="150.199" gradientUnits="userSpaceOnUse">
<stop stop-color="#E2E8F0"/>
<stop offset="1" stop-color="#E2E8F0" stop-opacity="0"/>
</linearGradient>
<clipPath id="clip0_1_6263">
<rect width="62.3469" height="45.3432" fill="white" transform="translate(102.768 116.192)"/>
</clipPath>
</defs>
</svg>
