<svg width="197" height="188" viewBox="0 0 197 188" fill="none" xmlns="http://www.w3.org/2000/svg">
<g filter="url(#filter0_d_1_6264)">
<path d="M98.7934 32.1295C98.0392 31.8371 97.2135 32.2851 96.874 33.0193C95.2938 36.4359 91.5631 38.502 87.6811 37.8175C83.7991 37.133 81 33.9155 80.6837 30.1645C80.6158 29.3585 79.9931 28.6551 79.1844 28.6719C78.3744 28.6887 77.7878 29.4193 77.755 30.2289C77.6024 33.99 74.9463 37.3262 71.0981 38.1794C67.2511 39.0323 63.4351 37.1326 61.7066 33.7903C61.3345 33.071 60.4905 32.6588 59.7496 32.9857C59.0096 33.3121 58.7461 34.2107 59.0247 34.9699C60.3212 38.5023 59.1438 42.5993 55.9159 44.8595C52.688 47.1197 48.4354 46.8248 45.5594 44.3983C44.9413 43.8768 44.0068 43.8172 43.447 44.4008C42.8864 44.9853 42.985 45.9193 43.5337 46.515C46.0831 49.2824 46.563 53.5179 44.4458 56.8411C42.328 60.1655 38.2844 61.5203 34.698 60.3773C33.9261 60.1313 33.039 60.4326 32.7461 61.188C32.4538 61.9421 32.9017 62.7678 33.6358 63.1073C37.0525 64.6874 39.1186 68.4182 38.4341 72.3002C37.7497 76.182 34.5324 78.9811 30.7815 79.2975C29.9752 79.3656 29.2715 79.9885 29.2883 80.7975C29.3052 81.6078 30.0361 82.1947 30.8459 82.2276C34.6067 82.3804 37.9427 85.0364 38.7958 88.8844C39.6486 92.7314 37.749 96.5473 34.4069 98.2759C33.6876 98.6479 33.2754 99.4919 33.6023 100.233C33.9287 100.973 34.8273 101.236 35.5865 100.958C39.1189 99.6612 43.2159 100.839 45.4761 104.066C47.7363 107.294 47.4415 111.547 45.015 114.423C44.4935 115.041 44.4339 115.976 45.0175 116.535C45.602 117.096 46.5361 116.997 47.1317 116.449C49.8991 113.899 54.1347 113.419 57.458 115.536C60.7824 117.654 62.1372 121.698 60.9942 125.284C60.7482 126.056 61.0495 126.943 61.8049 127.236C62.5591 127.529 63.3848 127.081 63.7243 126.346C65.3044 122.93 69.0352 120.864 72.9172 121.548C76.7991 122.233 79.5983 125.45 79.9145 129.201C79.9825 130.007 80.6052 130.711 81.4139 130.694C82.2239 130.677 82.8105 129.946 82.8433 129.137C82.9959 125.376 85.652 122.039 89.5002 121.186C93.3472 120.333 97.1631 122.233 98.8916 125.575C99.2637 126.295 100.108 126.707 100.849 126.38C101.589 126.053 101.852 125.155 101.574 124.395C100.277 120.863 101.455 116.766 104.683 114.506C107.91 112.245 112.163 112.54 115.039 114.967C115.657 115.488 116.592 115.548 117.152 114.964C117.712 114.38 117.614 113.446 117.065 112.85C114.516 110.082 114.036 105.847 116.153 102.524C118.271 99.1992 122.314 97.8443 125.9 98.9873C126.672 99.2334 127.56 98.932 127.853 98.1765C128.145 97.4223 127.697 96.5965 126.963 96.257C123.546 94.6769 121.48 90.9461 122.165 87.0641C122.849 83.182 126.067 80.3828 129.818 80.0667C130.624 79.9988 131.327 79.3764 131.31 78.568C131.293 77.7583 130.563 77.1719 129.754 77.1391C125.992 76.9869 122.656 74.3307 121.802 70.4822C120.95 66.6352 122.849 62.8192 126.191 61.0907C126.911 60.7186 127.323 59.8745 126.996 59.1334C126.67 58.3934 125.771 58.1298 125.012 58.4085C121.479 59.7051 117.382 58.5277 115.122 55.2997C112.862 52.0718 113.157 47.8191 115.583 44.9431C116.105 44.325 116.165 43.3903 115.581 42.8304C114.996 42.2697 114.062 42.3684 113.466 42.9172C110.699 45.4665 106.464 45.9465 103.14 43.8293C99.8159 41.7114 98.4611 37.6679 99.6041 34.0815C99.8501 33.3095 99.5488 32.4224 98.7934 32.1295Z" fill="url(#paint0_radial_1_6264)"/>
</g>
<g filter="url(#filter1_i_1_6264)">
<circle cx="80.2991" cy="79.6813" r="34.0074" fill="url(#paint1_linear_1_6264)"/>
</g>
<g filter="url(#filter2_ii_1_6264)">
<circle cx="80.2991" cy="79.6813" r="34.0074" fill="url(#paint2_linear_1_6264)"/>
</g>
<g filter="url(#filter3_f_1_6264)">
<ellipse cx="80.2991" cy="65.5115" rx="19.8376" ry="14.1697" fill="url(#paint3_linear_1_6264)" style="mix-blend-mode:soft-light"/>
</g>
<g filter="url(#filter4_f_1_6264)">
<path d="M74.8141 152.626C72.1812 141.783 66.038 137.265 63.2954 136.362H165.318C160.93 141.331 155.444 148.289 155.444 152.626C155.444 156.963 156.542 164.373 158.736 167.535H71.523C73.717 167.083 77.4469 163.469 74.8141 152.626Z" fill="url(#paint4_linear_1_6264)"/>
</g>
<g filter="url(#filter5_d_1_6264)">
<path fill-rule="evenodd" clip-rule="evenodd" d="M165.318 89.6358C165.318 89.6244 165.318 89.6129 165.318 89.6015C165.318 70.0372 149.458 54.1771 129.893 54.1771C114.617 54.1771 101.599 63.8471 96.6263 77.4C95.0203 77.0391 93.3498 76.8487 91.6349 76.8487C79.1137 76.8487 68.9633 86.9991 68.9633 99.5203C68.9633 99.5873 68.9636 99.6542 68.9642 99.7211C59.3502 101.096 51.9596 109.364 51.9596 119.358C51.9596 130.314 60.8412 139.196 71.7973 139.196H156.802L156.816 139.196C170.902 139.196 182.321 127.776 182.321 113.69C182.321 102.585 175.224 93.1372 165.318 89.6358Z" fill="#64748B"/>
</g>
<g filter="url(#filter6_ii_1_6264)">
<path fill-rule="evenodd" clip-rule="evenodd" d="M182.321 113.69C182.321 127.776 170.902 139.196 156.816 139.196C156.811 139.196 156.806 139.196 156.802 139.196H71.7973C60.8412 139.196 51.9596 130.314 51.9596 119.358C51.9596 108.402 60.8412 99.5203 71.7973 99.5203C79.7108 99.5203 86.542 104.154 89.7259 110.856H131.466C132.876 98.1035 143.687 88.1845 156.816 88.1845C170.902 88.1845 182.321 99.6038 182.321 113.69Z" fill="#F1F5F9"/>
</g>
<g filter="url(#filter7_f_1_6264)">
<circle cx="71.7973" cy="119.358" r="14.1697" fill="url(#paint5_linear_1_6264)" style="mix-blend-mode:soft-light"/>
</g>
<g filter="url(#filter8_i_1_6264)">
<circle cx="91.6349" cy="99.5203" r="22.6716" fill="#F1F5F9"/>
</g>
<g filter="url(#filter9_f_1_6264)">
<ellipse cx="91.6349" cy="96.6864" rx="17.0037" ry="14.1697" fill="url(#paint6_linear_1_6264)" style="mix-blend-mode:soft-light"/>
</g>
<g filter="url(#filter10_f_1_6264)">
<circle cx="159.65" cy="110.856" r="14.1697" fill="url(#paint7_linear_1_6264)" style="mix-blend-mode:soft-light"/>
</g>
<g filter="url(#filter11_i_1_6264)">
<circle cx="129.893" cy="89.6015" r="35.4244" fill="#F1F5F9"/>
</g>
<g filter="url(#filter12_f_1_6264)">
<ellipse cx="128.476" cy="74.0148" rx="19.8376" ry="14.1697" fill="url(#paint8_linear_1_6264)" style="mix-blend-mode:soft-light"/>
</g>
<g filter="url(#filter13_i_1_6264)">
<ellipse cx="117.14" cy="112.273" rx="25.5055" ry="18.4207" fill="url(#paint9_linear_1_6264)"/>
</g>
<g filter="url(#filter14_f_1_6264)">
<ellipse cx="117.14" cy="112.273" rx="19.8376" ry="12.7528" fill="url(#paint10_linear_1_6264)" style="mix-blend-mode:soft-light"/>
</g>
<path fill-rule="evenodd" clip-rule="evenodd" d="M165.318 89.6358C165.318 89.6244 165.318 89.6129 165.318 89.6015C165.318 70.0372 149.458 54.1771 129.893 54.1771C114.617 54.1771 101.599 63.8471 96.6263 77.4C95.0203 77.0391 93.3498 76.8487 91.6349 76.8487C79.1137 76.8487 68.9633 86.9991 68.9633 99.5203C68.9633 99.5873 68.9636 99.6542 68.9642 99.7211C59.3502 101.096 51.9596 109.364 51.9596 119.358C51.9596 130.314 60.8412 139.196 71.7973 139.196H156.802L156.816 139.196C170.902 139.196 182.321 127.776 182.321 113.69C182.321 102.585 175.224 93.1372 165.318 89.6358Z" fill="#93C5FD" style="mix-blend-mode:color"/>
<path fill-rule="evenodd" clip-rule="evenodd" d="M165.318 89.6358C165.318 89.6244 165.318 89.6129 165.318 89.6015C165.318 70.0372 149.458 54.1771 129.893 54.1771C114.617 54.1771 101.599 63.8471 96.6263 77.4C95.0203 77.0391 93.3498 76.8487 91.6349 76.8487C79.1137 76.8487 68.9633 86.9991 68.9633 99.5203C68.9633 99.5873 68.9636 99.6542 68.9642 99.7211C59.3502 101.096 51.9596 109.364 51.9596 119.358C51.9596 130.314 60.8412 139.196 71.7973 139.196H156.802L156.816 139.196C170.902 139.196 182.321 127.776 182.321 113.69C182.321 102.585 175.224 93.1372 165.318 89.6358Z" fill="#93C5FD" fill-opacity="0.2" style="mix-blend-mode:multiply"/>
<g filter="url(#filter15_ii_1_6264)">
<path d="M71.1136 167.366L81.3575 150.603C81.6914 150.057 82.5333 150.396 82.3944 151.021L78.1328 170.199C77.7427 171.954 76.1857 173.203 74.3875 173.203C71.3912 173.203 69.5513 169.922 71.1136 167.366Z" fill="#3B82F6"/>
</g>
<path d="M76.9563 170.627C76.3443 172.067 74.6805 172.739 73.2399 172.127C71.7993 171.515 71.1276 169.851 71.7395 168.411C72.3515 166.97 78.8585 154.17 80.2991 154.782C81.7396 155.394 77.5682 169.186 76.9563 170.627Z" fill="url(#paint11_radial_1_6264)"/>
<g filter="url(#filter16_ii_1_6264)">
<path d="M89.5343 167.366L99.7781 150.603C100.112 150.057 100.954 150.396 100.815 151.022L96.5535 170.199C96.1634 171.954 94.6064 173.203 92.8081 173.203C89.8119 173.203 87.9719 169.922 89.5343 167.366Z" fill="#3B82F6"/>
</g>
<path d="M95.3769 170.627C94.765 172.067 93.1011 172.739 91.6606 172.127C90.22 171.515 89.5483 169.851 90.1602 168.411C90.7721 166.97 97.2792 154.17 98.7197 154.782C100.16 155.394 95.9889 169.186 95.3769 170.627Z" fill="url(#paint12_radial_1_6264)"/>
<g filter="url(#filter17_ii_1_6264)">
<path d="M107.955 167.366L118.199 150.603C118.533 150.057 119.375 150.396 119.236 151.022L114.974 170.199C114.584 171.954 113.027 173.203 111.229 173.203C108.233 173.203 106.393 169.922 107.955 167.366Z" fill="#3B82F6"/>
</g>
<path d="M113.798 170.627C113.186 172.067 111.522 172.739 110.081 172.127C108.641 171.515 107.969 169.851 108.581 168.411C109.193 166.97 115.7 154.17 117.14 154.782C118.581 155.394 114.41 169.186 113.798 170.627Z" fill="url(#paint13_radial_1_6264)"/>
<g filter="url(#filter18_ii_1_6264)">
<path d="M126.376 167.366L136.619 150.603C136.953 150.057 137.795 150.396 137.656 151.022L133.395 170.199C133.005 171.954 131.448 173.203 129.649 173.203C126.653 173.203 124.813 169.922 126.376 167.366Z" fill="#3B82F6"/>
</g>
<path d="M132.218 170.627C131.606 172.067 129.942 172.739 128.502 172.127C127.061 171.515 126.39 169.851 127.002 168.411C127.613 166.97 134.121 154.17 135.561 154.782C137.002 155.394 132.83 169.186 132.218 170.627Z" fill="url(#paint14_radial_1_6264)"/>
<g style="mix-blend-mode:color" filter="url(#filter19_f_1_6264)">
<path fill-rule="evenodd" clip-rule="evenodd" d="M121.391 55.5941C117.516 56.5629 108.366 63.6861 105.805 66.8877C102.568 70.9336 99.9809 77.1195 98.7198 82.1638C93.3822 80.6388 86.6631 81.3734 81.1541 85.3084C75.6451 89.2434 72.2546 95.5948 73.2142 102.312C68.5214 103.251 64.167 103.599 60.4615 106.563C55.2258 110.752 51.9596 115.355 51.9596 117.899C51.9596 114.785 53.4661 107.551 59.5155 102.671C62.4079 99.8104 65.0667 99.1039 68.9633 98.0611C68.8529 93.8871 71.3401 85.0447 78.8821 79.6405C83.4579 75.9986 90.2904 75.6959 95.8858 76.8065C96.8084 74.2024 99.4225 69.4088 103.281 64.5855C107.519 59.2883 114.896 57.2179 121.391 55.5941Z" fill="#FFCC00"/>
</g>
<defs>
<filter id="filter0_d_1_6264" x="0.94854" y="0.332108" width="158.701" height="158.701" filterUnits="userSpaceOnUse" color-interpolation-filters="sRGB">
<feFlood flood-opacity="0" result="BackgroundImageFix"/>
<feColorMatrix in="SourceAlpha" type="matrix" values="0 0 0 0 0 0 0 0 0 0 0 0 0 0 0 0 0 0 127 0" result="hardAlpha"/>
<feOffset/>
<feGaussianBlur stdDeviation="14.1697"/>
<feComposite in2="hardAlpha" operator="out"/>
<feColorMatrix type="matrix" values="0 0 0 0 0.980392 0 0 0 0 0.8 0 0 0 0 0.0823529 0 0 0 0.7 0"/>
<feBlend mode="normal" in2="BackgroundImageFix" result="effect1_dropShadow_1_6264"/>
<feBlend mode="normal" in="SourceGraphic" in2="effect1_dropShadow_1_6264" result="shape"/>
</filter>
<filter id="filter1_i_1_6264" x="46.2917" y="42.84" width="68.0148" height="70.8488" filterUnits="userSpaceOnUse" color-interpolation-filters="sRGB">
<feFlood flood-opacity="0" result="BackgroundImageFix"/>
<feBlend mode="normal" in="SourceGraphic" in2="BackgroundImageFix" result="shape"/>
<feColorMatrix in="SourceAlpha" type="matrix" values="0 0 0 0 0 0 0 0 0 0 0 0 0 0 0 0 0 0 127 0" result="hardAlpha"/>
<feOffset dy="-2.83395"/>
<feGaussianBlur stdDeviation="2.83395"/>
<feComposite in2="hardAlpha" operator="arithmetic" k2="-1" k3="1"/>
<feColorMatrix type="matrix" values="0 0 0 0 0.992157 0 0 0 0 0.878431 0 0 0 0 0.278431 0 0 0 1 0"/>
<feBlend mode="normal" in2="shape" result="effect1_innerShadow_1_6264"/>
</filter>
<filter id="filter2_ii_1_6264" x="46.2917" y="42.84" width="68.0148" height="73.6827" filterUnits="userSpaceOnUse" color-interpolation-filters="sRGB">
<feFlood flood-opacity="0" result="BackgroundImageFix"/>
<feBlend mode="normal" in="SourceGraphic" in2="BackgroundImageFix" result="shape"/>
<feColorMatrix in="SourceAlpha" type="matrix" values="0 0 0 0 0 0 0 0 0 0 0 0 0 0 0 0 0 0 127 0" result="hardAlpha"/>
<feOffset dy="-2.83395"/>
<feGaussianBlur stdDeviation="4.25092"/>
<feComposite in2="hardAlpha" operator="arithmetic" k2="-1" k3="1"/>
<feColorMatrix type="matrix" values="0 0 0 0 0.992157 0 0 0 0 0.878431 0 0 0 0 0.278431 0 0 0 1 0"/>
<feBlend mode="normal" in2="shape" result="effect1_innerShadow_1_6264"/>
<feColorMatrix in="SourceAlpha" type="matrix" values="0 0 0 0 0 0 0 0 0 0 0 0 0 0 0 0 0 0 127 0" result="hardAlpha"/>
<feOffset dy="2.83395"/>
<feGaussianBlur stdDeviation="1.41697"/>
<feComposite in2="hardAlpha" operator="arithmetic" k2="-1" k3="1"/>
<feColorMatrix type="matrix" values="0 0 0 0 0.996078 0 0 0 0 0.941176 0 0 0 0 0.541176 0 0 0 1 0"/>
<feBlend mode="normal" in2="effect1_innerShadow_1_6264" result="effect2_innerShadow_1_6264"/>
</filter>
<filter id="filter3_f_1_6264" x="54.7936" y="45.6739" width="51.0111" height="39.6753" filterUnits="userSpaceOnUse" color-interpolation-filters="sRGB">
<feFlood flood-opacity="0" result="BackgroundImageFix"/>
<feBlend mode="normal" in="SourceGraphic" in2="BackgroundImageFix" result="shape"/>
<feGaussianBlur stdDeviation="2.83395" result="effect1_foregroundBlur_1_6264"/>
</filter>
<filter id="filter4_f_1_6264" x="57.6275" y="130.694" width="113.358" height="42.5092" filterUnits="userSpaceOnUse" color-interpolation-filters="sRGB">
<feFlood flood-opacity="0" result="BackgroundImageFix"/>
<feBlend mode="normal" in="SourceGraphic" in2="BackgroundImageFix" result="shape"/>
<feGaussianBlur stdDeviation="2.83395" result="effect1_foregroundBlur_1_6264"/>
</filter>
<filter id="filter5_d_1_6264" x="40.6238" y="48.5092" width="153.033" height="107.69" filterUnits="userSpaceOnUse" color-interpolation-filters="sRGB">
<feFlood flood-opacity="0" result="BackgroundImageFix"/>
<feColorMatrix in="SourceAlpha" type="matrix" values="0 0 0 0 0 0 0 0 0 0 0 0 0 0 0 0 0 0 127 0" result="hardAlpha"/>
<feOffset dy="5.6679"/>
<feGaussianBlur stdDeviation="5.6679"/>
<feComposite in2="hardAlpha" operator="out"/>
<feColorMatrix type="matrix" values="0 0 0 0 0.278431 0 0 0 0 0.333333 0 0 0 0 0.411765 0 0 0 0.4 0"/>
<feBlend mode="normal" in2="BackgroundImageFix" result="effect1_dropShadow_1_6264"/>
<feBlend mode="normal" in="SourceGraphic" in2="effect1_dropShadow_1_6264" result="shape"/>
</filter>
<filter id="filter6_ii_1_6264" x="51.9596" y="82.5166" width="130.362" height="62.3469" filterUnits="userSpaceOnUse" color-interpolation-filters="sRGB">
<feFlood flood-opacity="0" result="BackgroundImageFix"/>
<feBlend mode="normal" in="SourceGraphic" in2="BackgroundImageFix" result="shape"/>
<feColorMatrix in="SourceAlpha" type="matrix" values="0 0 0 0 0 0 0 0 0 0 0 0 0 0 0 0 0 0 127 0" result="hardAlpha"/>
<feOffset dy="5.6679"/>
<feGaussianBlur stdDeviation="2.83395"/>
<feComposite in2="hardAlpha" operator="arithmetic" k2="-1" k3="1"/>
<feColorMatrix type="matrix" values="0 0 0 0 0.796078 0 0 0 0 0.835294 0 0 0 0 0.882353 0 0 0 1 0"/>
<feBlend mode="normal" in2="shape" result="effect1_innerShadow_1_6264"/>
<feColorMatrix in="SourceAlpha" type="matrix" values="0 0 0 0 0 0 0 0 0 0 0 0 0 0 0 0 0 0 127 0" result="hardAlpha"/>
<feOffset dy="-5.6679"/>
<feGaussianBlur stdDeviation="2.83395"/>
<feComposite in2="hardAlpha" operator="arithmetic" k2="-1" k3="1"/>
<feColorMatrix type="matrix" values="0 0 0 0 0.796078 0 0 0 0 0.835294 0 0 0 0 0.882353 0 0 0 0.6 0"/>
<feBlend mode="normal" in2="effect1_innerShadow_1_6264" result="effect2_innerShadow_1_6264"/>
</filter>
<filter id="filter7_f_1_6264" x="51.9596" y="99.5203" width="39.6753" height="39.6753" filterUnits="userSpaceOnUse" color-interpolation-filters="sRGB">
<feFlood flood-opacity="0" result="BackgroundImageFix"/>
<feBlend mode="normal" in="SourceGraphic" in2="BackgroundImageFix" result="shape"/>
<feGaussianBlur stdDeviation="2.83395" result="effect1_foregroundBlur_1_6264"/>
</filter>
<filter id="filter8_i_1_6264" x="68.9633" y="76.8487" width="45.3432" height="51.0111" filterUnits="userSpaceOnUse" color-interpolation-filters="sRGB">
<feFlood flood-opacity="0" result="BackgroundImageFix"/>
<feBlend mode="normal" in="SourceGraphic" in2="BackgroundImageFix" result="shape"/>
<feColorMatrix in="SourceAlpha" type="matrix" values="0 0 0 0 0 0 0 0 0 0 0 0 0 0 0 0 0 0 127 0" result="hardAlpha"/>
<feOffset dy="5.6679"/>
<feGaussianBlur stdDeviation="2.83395"/>
<feComposite in2="hardAlpha" operator="arithmetic" k2="-1" k3="1"/>
<feColorMatrix type="matrix" values="0 0 0 0 0.796078 0 0 0 0 0.835294 0 0 0 0 0.882353 0 0 0 1 0"/>
<feBlend mode="normal" in2="shape" result="effect1_innerShadow_1_6264"/>
</filter>
<filter id="filter9_f_1_6264" x="68.9633" y="76.8487" width="45.3432" height="39.6753" filterUnits="userSpaceOnUse" color-interpolation-filters="sRGB">
<feFlood flood-opacity="0" result="BackgroundImageFix"/>
<feBlend mode="normal" in="SourceGraphic" in2="BackgroundImageFix" result="shape"/>
<feGaussianBlur stdDeviation="2.83395" result="effect1_foregroundBlur_1_6264"/>
</filter>
<filter id="filter10_f_1_6264" x="139.812" y="91.0185" width="39.6753" height="39.6753" filterUnits="userSpaceOnUse" color-interpolation-filters="sRGB">
<feFlood flood-opacity="0" result="BackgroundImageFix"/>
<feBlend mode="normal" in="SourceGraphic" in2="BackgroundImageFix" result="shape"/>
<feGaussianBlur stdDeviation="2.83395" result="effect1_foregroundBlur_1_6264"/>
</filter>
<filter id="filter11_i_1_6264" x="94.4689" y="54.1771" width="70.8487" height="76.5166" filterUnits="userSpaceOnUse" color-interpolation-filters="sRGB">
<feFlood flood-opacity="0" result="BackgroundImageFix"/>
<feBlend mode="normal" in="SourceGraphic" in2="BackgroundImageFix" result="shape"/>
<feColorMatrix in="SourceAlpha" type="matrix" values="0 0 0 0 0 0 0 0 0 0 0 0 0 0 0 0 0 0 127 0" result="hardAlpha"/>
<feOffset dy="5.6679"/>
<feGaussianBlur stdDeviation="2.83395"/>
<feComposite in2="hardAlpha" operator="arithmetic" k2="-1" k3="1"/>
<feColorMatrix type="matrix" values="0 0 0 0 0.796078 0 0 0 0 0.835294 0 0 0 0 0.882353 0 0 0 1 0"/>
<feBlend mode="normal" in2="shape" result="effect1_innerShadow_1_6264"/>
</filter>
<filter id="filter12_f_1_6264" x="102.971" y="54.1771" width="51.0111" height="39.6753" filterUnits="userSpaceOnUse" color-interpolation-filters="sRGB">
<feFlood flood-opacity="0" result="BackgroundImageFix"/>
<feBlend mode="normal" in="SourceGraphic" in2="BackgroundImageFix" result="shape"/>
<feGaussianBlur stdDeviation="2.83395" result="effect1_foregroundBlur_1_6264"/>
</filter>
<filter id="filter13_i_1_6264" x="91.6349" y="93.8524" width="51.0111" height="42.5092" filterUnits="userSpaceOnUse" color-interpolation-filters="sRGB">
<feFlood flood-opacity="0" result="BackgroundImageFix"/>
<feBlend mode="normal" in="SourceGraphic" in2="BackgroundImageFix" result="shape"/>
<feColorMatrix in="SourceAlpha" type="matrix" values="0 0 0 0 0 0 0 0 0 0 0 0 0 0 0 0 0 0 127 0" result="hardAlpha"/>
<feOffset dy="5.6679"/>
<feGaussianBlur stdDeviation="2.83395"/>
<feComposite in2="hardAlpha" operator="arithmetic" k2="-1" k3="1"/>
<feColorMatrix type="matrix" values="0 0 0 0 0.796078 0 0 0 0 0.835294 0 0 0 0 0.882353 0 0 0 0.6 0"/>
<feBlend mode="normal" in2="shape" result="effect1_innerShadow_1_6264"/>
</filter>
<filter id="filter14_f_1_6264" x="91.6349" y="93.8524" width="51.0111" height="36.8414" filterUnits="userSpaceOnUse" color-interpolation-filters="sRGB">
<feFlood flood-opacity="0" result="BackgroundImageFix"/>
<feBlend mode="normal" in="SourceGraphic" in2="BackgroundImageFix" result="shape"/>
<feGaussianBlur stdDeviation="2.83395" result="effect1_foregroundBlur_1_6264"/>
</filter>
<filter id="filter15_ii_1_6264" x="70.5447" y="148.912" width="11.865" height="24.2908" filterUnits="userSpaceOnUse" color-interpolation-filters="sRGB">
<feFlood flood-opacity="0" result="BackgroundImageFix"/>
<feBlend mode="normal" in="SourceGraphic" in2="BackgroundImageFix" result="shape"/>
<feColorMatrix in="SourceAlpha" type="matrix" values="0 0 0 0 0 0 0 0 0 0 0 0 0 0 0 0 0 0 127 0" result="hardAlpha"/>
<feOffset dy="-2.83395"/>
<feComposite in2="hardAlpha" operator="arithmetic" k2="-1" k3="1"/>
<feColorMatrix type="matrix" values="0 0 0 0 0.231373 0 0 0 0 0.509804 0 0 0 0 0.964706 0 0 0 1 0"/>
<feBlend mode="normal" in2="shape" result="effect1_innerShadow_1_6264"/>
<feColorMatrix in="SourceAlpha" type="matrix" values="0 0 0 0 0 0 0 0 0 0 0 0 0 0 0 0 0 0 127 0" result="hardAlpha"/>
<feOffset dy="-1.41697"/>
<feGaussianBlur stdDeviation="0.708487"/>
<feComposite in2="hardAlpha" operator="arithmetic" k2="-1" k3="1"/>
<feColorMatrix type="matrix" values="0 0 0 0 0.113438 0 0 0 0 0.33625 0 0 0 0 0.825 0 0 0 1 0"/>
<feBlend mode="normal" in2="effect1_innerShadow_1_6264" result="effect2_innerShadow_1_6264"/>
</filter>
<filter id="filter16_ii_1_6264" x="88.9654" y="148.912" width="11.865" height="24.2908" filterUnits="userSpaceOnUse" color-interpolation-filters="sRGB">
<feFlood flood-opacity="0" result="BackgroundImageFix"/>
<feBlend mode="normal" in="SourceGraphic" in2="BackgroundImageFix" result="shape"/>
<feColorMatrix in="SourceAlpha" type="matrix" values="0 0 0 0 0 0 0 0 0 0 0 0 0 0 0 0 0 0 127 0" result="hardAlpha"/>
<feOffset dy="-2.83395"/>
<feComposite in2="hardAlpha" operator="arithmetic" k2="-1" k3="1"/>
<feColorMatrix type="matrix" values="0 0 0 0 0.231373 0 0 0 0 0.509804 0 0 0 0 0.964706 0 0 0 1 0"/>
<feBlend mode="normal" in2="shape" result="effect1_innerShadow_1_6264"/>
<feColorMatrix in="SourceAlpha" type="matrix" values="0 0 0 0 0 0 0 0 0 0 0 0 0 0 0 0 0 0 127 0" result="hardAlpha"/>
<feOffset dy="-1.41697"/>
<feGaussianBlur stdDeviation="0.708487"/>
<feComposite in2="hardAlpha" operator="arithmetic" k2="-1" k3="1"/>
<feColorMatrix type="matrix" values="0 0 0 0 0.113438 0 0 0 0 0.33625 0 0 0 0 0.825 0 0 0 1 0"/>
<feBlend mode="normal" in2="effect1_innerShadow_1_6264" result="effect2_innerShadow_1_6264"/>
</filter>
<filter id="filter17_ii_1_6264" x="107.386" y="148.912" width="11.865" height="24.2908" filterUnits="userSpaceOnUse" color-interpolation-filters="sRGB">
<feFlood flood-opacity="0" result="BackgroundImageFix"/>
<feBlend mode="normal" in="SourceGraphic" in2="BackgroundImageFix" result="shape"/>
<feColorMatrix in="SourceAlpha" type="matrix" values="0 0 0 0 0 0 0 0 0 0 0 0 0 0 0 0 0 0 127 0" result="hardAlpha"/>
<feOffset dy="-2.83395"/>
<feComposite in2="hardAlpha" operator="arithmetic" k2="-1" k3="1"/>
<feColorMatrix type="matrix" values="0 0 0 0 0.231373 0 0 0 0 0.509804 0 0 0 0 0.964706 0 0 0 1 0"/>
<feBlend mode="normal" in2="shape" result="effect1_innerShadow_1_6264"/>
<feColorMatrix in="SourceAlpha" type="matrix" values="0 0 0 0 0 0 0 0 0 0 0 0 0 0 0 0 0 0 127 0" result="hardAlpha"/>
<feOffset dy="-1.41697"/>
<feGaussianBlur stdDeviation="0.708487"/>
<feComposite in2="hardAlpha" operator="arithmetic" k2="-1" k3="1"/>
<feColorMatrix type="matrix" values="0 0 0 0 0.113438 0 0 0 0 0.33625 0 0 0 0 0.825 0 0 0 1 0"/>
<feBlend mode="normal" in2="effect1_innerShadow_1_6264" result="effect2_innerShadow_1_6264"/>
</filter>
<filter id="filter18_ii_1_6264" x="125.807" y="148.912" width="11.865" height="24.2908" filterUnits="userSpaceOnUse" color-interpolation-filters="sRGB">
<feFlood flood-opacity="0" result="BackgroundImageFix"/>
<feBlend mode="normal" in="SourceGraphic" in2="BackgroundImageFix" result="shape"/>
<feColorMatrix in="SourceAlpha" type="matrix" values="0 0 0 0 0 0 0 0 0 0 0 0 0 0 0 0 0 0 127 0" result="hardAlpha"/>
<feOffset dy="-2.83395"/>
<feComposite in2="hardAlpha" operator="arithmetic" k2="-1" k3="1"/>
<feColorMatrix type="matrix" values="0 0 0 0 0.231373 0 0 0 0 0.509804 0 0 0 0 0.964706 0 0 0 1 0"/>
<feBlend mode="normal" in2="shape" result="effect1_innerShadow_1_6264"/>
<feColorMatrix in="SourceAlpha" type="matrix" values="0 0 0 0 0 0 0 0 0 0 0 0 0 0 0 0 0 0 127 0" result="hardAlpha"/>
<feOffset dy="-1.41697"/>
<feGaussianBlur stdDeviation="0.708487"/>
<feComposite in2="hardAlpha" operator="arithmetic" k2="-1" k3="1"/>
<feColorMatrix type="matrix" values="0 0 0 0 0.113438 0 0 0 0 0.33625 0 0 0 0 0.825 0 0 0 1 0"/>
<feBlend mode="normal" in2="effect1_innerShadow_1_6264" result="effect2_innerShadow_1_6264"/>
</filter>
<filter id="filter19_f_1_6264" x="46.2917" y="49.9262" width="80.7676" height="73.6405" filterUnits="userSpaceOnUse" color-interpolation-filters="sRGB">
<feFlood flood-opacity="0" result="BackgroundImageFix"/>
<feBlend mode="normal" in="SourceGraphic" in2="BackgroundImageFix" result="shape"/>
<feGaussianBlur stdDeviation="2.83395" result="effect1_foregroundBlur_1_6264"/>
</filter>
<radialGradient id="paint0_radial_1_6264" cx="0" cy="0" r="1" gradientUnits="userSpaceOnUse" gradientTransform="translate(80.2991 45.6739) rotate(90) scale(85.0185 85.0183)">
<stop stop-color="#FACC15"/>
<stop offset="1" stop-color="#D97706"/>
</radialGradient>
<linearGradient id="paint1_linear_1_6264" x1="80.2991" y1="45.6739" x2="80.2991" y2="113.689" gradientUnits="userSpaceOnUse">
<stop stop-color="#FEF08A"/>
<stop offset="1" stop-color="#F59E0B"/>
</linearGradient>
<linearGradient id="paint2_linear_1_6264" x1="80.2991" y1="45.6739" x2="80.2991" y2="113.689" gradientUnits="userSpaceOnUse">
<stop stop-color="#FFF28F"/>
<stop offset="1" stop-color="#F79B00"/>
</linearGradient>
<linearGradient id="paint3_linear_1_6264" x1="80.2991" y1="51.3418" x2="80.2991" y2="79.6813" gradientUnits="userSpaceOnUse">
<stop stop-color="#FEF9C3"/>
<stop offset="1" stop-color="#FEF9C3" stop-opacity="0"/>
<stop offset="1" stop-color="#FEF9C3" stop-opacity="0.2"/>
</linearGradient>
<linearGradient id="paint4_linear_1_6264" x1="114.307" y1="136.362" x2="114.307" y2="167.535" gradientUnits="userSpaceOnUse">
<stop stop-color="#BAE6FD"/>
<stop offset="1" stop-color="#BAE6FD" stop-opacity="0"/>
</linearGradient>
<linearGradient id="paint5_linear_1_6264" x1="71.7973" y1="105.188" x2="71.7973" y2="133.528" gradientUnits="userSpaceOnUse">
<stop stop-color="white"/>
<stop offset="1" stop-color="#F3F3F3" stop-opacity="0.2"/>
</linearGradient>
<linearGradient id="paint6_linear_1_6264" x1="91.6349" y1="82.5166" x2="91.6349" y2="110.856" gradientUnits="userSpaceOnUse">
<stop stop-color="white"/>
<stop offset="1" stop-color="#F3F3F3" stop-opacity="0.2"/>
</linearGradient>
<linearGradient id="paint7_linear_1_6264" x1="159.65" y1="96.6864" x2="159.65" y2="125.026" gradientUnits="userSpaceOnUse">
<stop stop-color="white"/>
<stop offset="1" stop-color="#F3F3F3" stop-opacity="0.2"/>
</linearGradient>
<linearGradient id="paint8_linear_1_6264" x1="128.476" y1="59.845" x2="128.476" y2="88.1845" gradientUnits="userSpaceOnUse">
<stop stop-color="white"/>
<stop offset="1" stop-color="#F3F3F3" stop-opacity="0.2"/>
</linearGradient>
<linearGradient id="paint9_linear_1_6264" x1="117.14" y1="93.8524" x2="117.14" y2="130.694" gradientUnits="userSpaceOnUse">
<stop stop-color="#F1F5F9"/>
<stop offset="0.650321" stop-color="#F1F5F9" stop-opacity="0"/>
</linearGradient>
<linearGradient id="paint10_linear_1_6264" x1="117.14" y1="99.5203" x2="117.14" y2="125.026" gradientUnits="userSpaceOnUse">
<stop stop-color="white"/>
<stop offset="1" stop-color="#F3F3F3" stop-opacity="0.2"/>
</linearGradient>
<radialGradient id="paint11_radial_1_6264" cx="0" cy="0" r="1" gradientUnits="userSpaceOnUse" gradientTransform="translate(73.2142 171.786) rotate(-68.1986) scale(15.2613 15.2613)">
<stop stop-color="#74D5FF"/>
<stop offset="0.37551" stop-color="#74D5FF" stop-opacity="0"/>
</radialGradient>
<radialGradient id="paint12_radial_1_6264" cx="0" cy="0" r="1" gradientUnits="userSpaceOnUse" gradientTransform="translate(91.6349 171.786) rotate(-68.1986) scale(15.2613 15.2613)">
<stop stop-color="#74D5FF"/>
<stop offset="0.37551" stop-color="#74D5FF" stop-opacity="0"/>
</radialGradient>
<radialGradient id="paint13_radial_1_6264" cx="0" cy="0" r="1" gradientUnits="userSpaceOnUse" gradientTransform="translate(110.056 171.786) rotate(-68.1986) scale(15.2613 15.2613)">
<stop stop-color="#74D5FF"/>
<stop offset="0.37551" stop-color="#74D5FF" stop-opacity="0"/>
</radialGradient>
<radialGradient id="paint14_radial_1_6264" cx="0" cy="0" r="1" gradientUnits="userSpaceOnUse" gradientTransform="translate(128.476 171.786) rotate(-68.1986) scale(15.2613 15.2613)">
<stop stop-color="#74D5FF"/>
<stop offset="0.37551" stop-color="#74D5FF" stop-opacity="0"/>
</radialGradient>
</defs>
</svg>
