<svg width="192" height="192" viewBox="0 0 192 192" fill="none" xmlns="http://www.w3.org/2000/svg">
<path d="M145.105 139.966C147.092 137.919 145.172 134.667 142.326 134.887C140.599 135.021 138.854 135.089 137.093 135.089C100.123 135.089 70.1534 105.142 70.1534 68.2016C70.1534 56.8398 72.9886 46.1397 77.9905 36.769C79.3359 34.2484 77.1184 31.1867 74.4447 32.1984C49.522 41.6288 31.8 65.7313 31.8 93.9762C31.8 130.44 61.3363 160 97.7711 160C116.34 160 133.116 152.323 145.105 139.966Z" fill="#e5e5ea" fill-opacity="0.7"/>
<path fill-rule="evenodd" clip-rule="evenodd" d="M117.951 51.8132C117.631 51.3564 117.216 50.6805 115.964 48.9269C115.99 48.953 109.968 41.2166 109.968 41.2166C109.227 40.2647 109.414 40.106 110.379 40.856L118.06 46.8305C119.783 48.061 120.476 48.4933 120.939 48.8177C121.396 48.4974 122.072 48.0831 123.825 46.8305C123.799 46.8566 131.536 40.8345 131.536 40.8345C132.488 40.0937 132.646 40.2811 131.896 41.2454L125.922 48.9269C124.691 50.6496 124.259 51.343 123.935 51.8059C124.255 52.2626 124.669 52.9386 125.922 54.6921C125.896 54.666 131.918 62.4024 131.918 62.4024C132.659 63.3543 132.471 63.513 131.507 62.7631L123.825 56.7885C122.103 55.5581 121.409 55.1258 120.947 54.8014C120.49 55.1216 119.814 55.536 118.06 56.7885C118.086 56.7624 110.35 62.7845 110.35 62.7845C109.398 63.5254 109.239 63.3379 109.989 62.3737L115.964 54.6921C117.194 52.9694 117.627 52.2761 117.951 51.8132Z" fill="white"/>
<path fill-rule="evenodd" clip-rule="evenodd" d="M152.143 92.3686C152.155 92.3808 149.348 88.7746 149.348 88.7746C149 88.3274 149.085 88.251 149.535 88.6011C149.535 88.6011 153.121 91.39 153.121 91.39C153.925 91.9644 154.249 92.1662 154.465 92.3176C154.678 92.1681 154.994 91.9747 155.812 91.39C155.8 91.4022 159.406 88.5951 159.406 88.5951C159.854 88.247 159.93 88.3327 159.58 88.7829C159.58 88.7829 156.791 92.3686 156.791 92.3686C156.217 93.1728 156.015 93.4965 155.863 93.7125C156.013 93.9258 156.206 94.2413 156.791 95.0598C156.779 95.0477 159.586 98.6539 159.586 98.6539C159.934 99.1011 159.848 99.1775 159.398 98.8274C159.398 98.8274 155.812 96.0385 155.812 96.0385C155.008 95.4641 154.685 95.2623 154.468 95.1108C154.255 95.2603 153.94 95.4538 153.121 96.0385C153.133 96.0263 149.527 98.8334 149.527 98.8334C149.08 99.1815 149.004 99.0957 149.354 98.6456C149.354 98.6456 152.143 95.0598 152.143 95.0598C152.717 94.2557 152.919 93.932 153.07 93.716C152.921 93.5027 152.727 93.1872 152.143 92.3686Z" fill="white"/>
</svg>
