<svg width="24" height="24" viewBox="0 0 24 24" fill="none" xmlns="http://www.w3.org/2000/svg">
<path d="M12 3C17.392 3 21.878 6.88 22.819 12C21.879 17.12 17.392 21 12 21C6.60801 21 2.12201 17.12 1.18201 12C2.12201 6.88 6.60801 3 12 3ZM12 19C14.0396 18.9998 16.0188 18.3071 17.6135 17.0355C19.2081 15.7638 20.3239 13.9884 20.778 12C20.3226 10.0128 19.2065 8.23896 17.612 6.96854C16.0176 5.69813 14.0392 5.00635 12.0005 5.00635C9.96182 5.00635 7.98346 5.69813 6.38901 6.96854C4.79455 8.23896 3.67837 10.0128 3.22301 12C3.6771 13.9883 4.79268 15.7635 6.38715 17.0352C7.98162 18.3068 9.96054 18.9996 12 19ZM12 16.5C10.8065 16.5 9.66194 16.0259 8.81803 15.182C7.97411 14.3381 7.50001 13.1935 7.50001 12C7.50001 10.8065 7.97411 9.66193 8.81803 8.81802C9.66194 7.97411 10.8065 7.5 12 7.5C13.1935 7.5 14.3381 7.97411 15.182 8.81802C16.0259 9.66193 16.5 10.8065 16.5 12C16.5 13.1935 16.0259 14.3381 15.182 15.182C14.3381 16.0259 13.1935 16.5 12 16.5ZM12 14.5C12.663 14.5 13.2989 14.2366 13.7678 13.7678C14.2366 13.2989 14.5 12.663 14.5 12C14.5 11.337 14.2366 10.7011 13.7678 10.2322C13.2989 9.76339 12.663 9.5 12 9.5C11.337 9.5 10.7011 9.76339 10.2322 10.2322C9.7634 10.7011 9.50001 11.337 9.50001 12C9.50001 12.663 9.7634 13.2989 10.2322 13.7678C10.7011 14.2366 11.337 14.5 12 14.5Z" fill="white"/>
</svg>
