<svg width="144" height="136" viewBox="0 0 144 136" fill="none" xmlns="http://www.w3.org/2000/svg">
<path d="M131.975 46.079C131.992 45.5785 132 45.0759 132 44.5714C132 19.9553 112.122 0 87.6001 0C68.1479 0 51.6175 12.5574 45.6141 30.0375C41.3027 27.7789 36.3999 26.5019 31.2 26.5019C13.9687 26.5019 0 40.5246 0 57.8224C0 75.1202 13.9687 89.1428 31.2 89.1428L87.6001 89.1429C87.62 89.1429 87.6399 89.1428 87.6598 89.1428H121.2C133.792 89.1428 144 78.8955 144 66.2548C144 57.5266 139.133 49.9395 131.975 46.079Z" fill="white"/>
<path fill-rule="evenodd" clip-rule="evenodd" d="M21.6001 100C21.6001 97.7909 23.391 96 25.6001 96H117.6C119.809 96 121.6 97.7909 121.6 100C121.6 102.209 119.809 104 117.6 104H25.6001C23.391 104 21.6001 102.209 21.6001 100ZM21.6001 116C21.6001 113.791 23.391 112 25.6001 112H117.6C119.809 112 121.6 113.791 121.6 116C121.6 118.209 119.809 120 117.6 120H25.6001C23.391 120 21.6001 118.209 21.6001 116ZM25.6001 128C23.391 128 21.6001 129.791 21.6001 132C21.6001 134.209 23.391 136 25.6001 136H117.6C119.809 136 121.6 134.209 121.6 132C121.6 129.791 119.809 128 117.6 128H25.6001Z" fill="black" fill-opacity="0.4"/>
</svg>
