<svg width="144" height="119" viewBox="0 0 144 119" fill="none" xmlns="http://www.w3.org/2000/svg">
<path fill-rule="evenodd" clip-rule="evenodd" d="M132 44.5714C132 45.0759 131.992 45.5785 131.975 46.079C139.133 49.9395 144 57.5266 144 66.2548C144 78.8955 133.792 89.1428 121.2 89.1428H106.032C105.548 87.79 104.599 86.595 103.255 85.8207L101.944 85.066C102.133 82.7233 100.99 80.3712 98.8139 79.1179C96.6236 77.8567 93.9869 78.0581 92.0423 79.4178L86.61 76.4C86.61 76.4 91.008 73.3397 92.0966 72.6207C94.0352 73.9471 96.6421 74.1327 98.8139 72.8821C101.014 71.6155 102.157 69.2225 101.936 66.8531C103.215 66.1027 103.255 66.1793 103.255 66.1793C106.261 64.4482 107.293 60.6025 105.555 57.6C103.818 54.5989 99.9664 53.563 96.9551 55.2969C96.9551 55.2969 96.8142 55.4059 95.5916 56.0156C93.6572 54.7139 91.0712 54.5393 88.9143 55.7813C86.7317 57.0381 85.5886 59.4039 85.7869 61.7551C84.6666 62.424 79.8997 65.3173 79.8997 65.3173C79.8997 65.3173 79.9125 59.1547 79.9664 58.3092C82.0591 57.2875 83.4995 55.1438 83.4995 52.6634C83.4995 50.1535 82.0211 47.9859 79.8853 46.9796C79.9164 45.878 79.8997 45.4762 79.8997 45.4762C79.8997 42.014 77.0763 39.2 73.6 39.2C70.1254 39.2 67.3003 42.0084 67.3003 45.4762C67.3003 45.4762 67.3158 45.6086 67.3058 46.9829C65.1741 47.9902 63.7004 50.1546 63.7004 52.6634C63.7004 55.1816 65.1887 57.3552 67.3359 58.3571C67.2772 60.0071 67.3003 65.3173 67.3003 65.3173C67.3003 65.3173 62.6011 62.5505 61.4174 61.7125C61.5993 59.3753 60.4571 57.0316 58.2857 55.7813C56.1212 54.535 53.5208 54.717 51.5832 56.0337C50.36 55.4182 50.2449 55.2969 50.2449 55.2969C47.2384 53.5658 43.3832 54.5975 41.6451 57.6C39.9078 60.6011 40.9339 64.4454 43.9451 66.1793C43.9451 66.1793 44.231 66.1785 45.2591 66.8946C45.0542 69.2504 46.1973 71.6218 48.3861 72.8821C50.5671 74.1379 53.1906 73.9436 55.1327 72.5995C55.7795 73.1208 61.4174 76.4 61.4174 76.4L55.27 79.4973C53.316 78.0649 50.6208 77.8311 48.3861 79.1179C46.2116 80.37 45.0689 82.7229 45.2566 85.0656L43.9451 85.8207C42.6022 86.594 41.6532 87.7893 41.1692 89.1428H31.2C13.9687 89.1428 0 75.1202 0 57.8224C0 40.5246 13.9687 26.5019 31.2 26.5019C36.3999 26.5019 41.3027 27.7789 45.6141 30.0375C51.6175 12.5574 68.1479 0 87.6001 0C112.122 0 132 19.9553 132 44.5714ZM63.1957 89.1429H67.3003V86.6827L63.1957 89.1429ZM79.8683 89.1429H83.8255L79.8587 86.8588L79.8683 89.1429Z" fill="white"/>
<path fill-rule="evenodd" clip-rule="evenodd" d="M70.9848 95.895V55.9336H70.1159C68.6698 55.9336 67.4976 54.7639 67.4976 53.3275C67.4976 51.8881 68.6679 50.7213 70.1159 50.7213H70.9848V46.3712C70.9848 44.9354 72.1586 43.7715 73.6001 43.7715C75.0446 43.7715 76.2155 44.9422 76.2155 46.3712V50.7213H77.0844C78.5304 50.7213 79.7027 51.891 79.7027 53.3275C79.7027 54.7668 78.5324 55.9336 77.0844 55.9336H76.2155V95.895H77.0844C78.5304 95.895 79.7027 97.0648 79.7027 98.5012C79.7027 99.9406 78.5324 101.107 77.0844 101.107H76.2155V105.458C76.2155 106.893 75.0416 108.057 73.6001 108.057C72.1557 108.057 70.9848 106.887 70.9848 105.458V101.107H70.1159C68.6698 101.107 67.4976 99.9376 67.4976 98.5012C67.4976 97.0619 68.6679 95.895 70.1159 95.895H70.9848Z" fill="white"/>
<path fill-rule="evenodd" clip-rule="evenodd" d="M57.543 63.667L92.2727 83.6477L92.7072 82.8978C93.4302 81.6499 95.0329 81.2232 96.2813 81.9414C97.5322 82.6611 97.9611 84.2544 97.2371 85.504L96.8027 86.2538L100.583 88.4289C101.831 89.1468 102.256 90.7418 101.535 91.9858C100.813 93.2323 99.2099 93.6574 97.9679 92.9429L94.1873 90.7679L93.7529 91.5177C93.0299 92.7656 91.4271 93.1924 90.1787 92.4741C88.9278 91.7545 88.4989 90.1611 89.2229 88.9115L89.6573 88.1617L54.9276 68.181L54.4932 68.9308C53.7702 70.1787 52.1674 70.6055 50.919 69.8873C49.6681 69.1676 49.2392 67.5743 49.9632 66.3246L50.3976 65.5748L46.617 63.3998C45.3692 62.6819 44.9446 61.0869 45.6654 59.8429C46.3876 58.5964 47.9905 58.1712 49.2324 58.8857L53.013 61.0608L53.4475 60.311C54.1705 59.0631 55.7732 58.6363 57.0216 59.3545C58.2725 60.0742 58.7014 61.6675 57.9774 62.9171L57.543 63.667Z" fill="white"/>
<path fill-rule="evenodd" clip-rule="evenodd" d="M92.2727 68.181L57.5429 88.1617L57.9774 88.9115C58.7004 90.1594 58.2699 91.756 57.0215 92.4742C55.7706 93.1938 54.1714 92.7673 53.4474 91.5177L53.013 90.7679L49.2324 92.943C47.9846 93.6608 46.3861 93.2298 45.6653 91.9858C44.9431 90.7393 45.3751 89.1434 46.617 88.4289L50.3976 86.2539L49.9632 85.5041C49.2401 84.2561 49.6706 82.6596 50.919 81.9414C52.1699 81.2217 53.7691 81.6483 54.4931 82.8979L54.9276 83.6477L89.6573 63.667L89.2229 62.9172C88.4998 61.6693 88.9303 60.0728 90.1787 59.3546C91.4296 58.6349 93.0288 59.0614 93.7528 60.311L94.1873 61.0608L97.9679 58.8858C99.2157 58.1679 100.814 58.599 101.535 59.8429C102.257 61.0894 101.825 62.6853 100.583 63.3998L96.8026 65.5748L97.2371 66.3247C97.9601 67.5726 97.5296 69.1691 96.2812 69.8873C95.0303 70.607 93.4311 70.1805 92.7071 68.9308L92.2727 68.181Z" fill="white"/>
<path fill-rule="evenodd" clip-rule="evenodd" d="M32.216 101.368C32.8987 99.2667 35.1553 98.1169 37.2563 98.7996C39.3573 99.4822 40.5071 101.739 39.8244 103.84L32.7821 125.514C32.0995 127.615 29.8428 128.765 27.7418 128.082C25.6408 127.399 24.491 125.143 25.1737 123.042L32.216 101.368ZM53.3619 98.7996C51.2609 98.1169 49.0043 99.2667 48.3216 101.368L34.6924 143.314C34.0097 145.415 35.1595 147.672 37.2605 148.355C39.3615 149.037 41.6181 147.887 42.3008 145.786L55.9301 103.84C56.6127 101.739 55.4629 99.4822 53.3619 98.7996ZM101.506 98.7996C99.4047 98.1169 97.148 99.2667 96.4654 101.368L82.8361 143.314C82.1534 145.415 83.3032 147.672 85.4043 148.355C87.5053 149.037 89.7619 147.887 90.4446 145.786L104.074 103.84C104.756 101.739 103.607 99.4822 101.506 98.7996ZM60.8591 112.35C61.5418 110.249 63.7984 109.099 65.8994 109.782C68.0004 110.465 69.1502 112.721 68.4675 114.822L61.7001 135.65C61.0175 137.751 58.7609 138.901 56.6598 138.218C54.5588 137.536 53.409 135.279 54.0917 133.178L60.8591 112.35ZM117.412 98.7996C115.311 98.1169 113.055 99.2667 112.372 101.368L102.036 133.178C101.354 135.279 102.503 137.536 104.604 138.218C106.705 138.901 108.962 137.751 109.645 135.65L119.98 103.84C120.663 101.739 119.513 99.4822 117.412 98.7996ZM82.801 107.33C80.6999 106.648 78.4433 107.797 77.7607 109.898L73.4901 123.042C72.8075 125.143 73.9573 127.399 76.0583 128.082C78.1593 128.765 80.4159 127.615 81.0986 125.514L85.3691 112.371C86.0518 110.27 84.902 108.013 82.801 107.33Z" fill="#B4F5F2"/>
</svg>
