<svg width="192" height="192" viewBox="0 0 192 192" fill="none" xmlns="http://www.w3.org/2000/svg">
<path fill-rule="evenodd" clip-rule="evenodd" d="M92.2073 75.2256L78.2914 61.8233C76.6555 60.2478 76.6403 57.7081 78.2827 56.1262C79.9138 54.5553 82.5608 54.5576 84.1981 56.1345L92.2073 63.8481V39.9169C92.2073 37.6883 94.0611 35.8817 96.3839 35.8817C98.6906 35.8817 100.561 37.664 100.561 39.9169V63.9768L108.703 56.1345C110.339 54.559 112.976 54.5444 114.619 56.1262C116.25 57.6971 116.247 60.2464 114.61 61.8233L100.561 75.3543V136.415L114.656 149.99C116.293 151.567 116.296 154.116 114.665 155.687C113.022 157.269 110.385 157.254 108.749 155.679L100.561 147.792V171.965C100.561 174.193 98.7067 176 96.3839 176C94.0772 176 92.2073 174.218 92.2073 171.965V147.808L84.0351 155.679C82.3978 157.256 79.7509 157.258 78.1198 155.687C76.4773 154.105 76.4926 151.565 78.1284 149.99L92.2073 136.431V75.2256Z" fill="white"/>
<path fill-rule="evenodd" clip-rule="evenodd" d="M124.512 117.417L142.986 112.056C145.158 111.426 147.354 112.682 147.899 114.897C148.44 117.096 147.121 119.389 144.947 120.02L134.314 123.106L153.163 135.186C155.084 136.3 155.717 138.81 154.561 140.824C153.412 142.823 150.946 143.553 149.005 142.426L130.044 130.282L132.747 141.261C133.29 143.467 131.99 145.76 129.809 146.393C127.644 147.021 125.448 145.744 124.905 143.537L120.242 124.593L67.6356 94.0629L48.9225 99.493C46.7488 100.124 44.5513 98.8512 44.0099 96.6519C43.4648 94.4373 44.7903 92.1589 46.9621 91.5287L57.8334 88.3742L38.7758 76.1733C36.8558 75.059 36.2222 72.5488 37.3786 70.5354C38.527 68.536 40.9936 67.8063 42.9345 68.9328L61.9784 81.1256L59.266 70.1069C58.7226 67.8992 60.0384 65.6037 62.2038 64.9754C64.3844 64.3426 66.5649 65.6257 67.1078 67.8314L71.7806 86.8143L124.512 117.417Z" fill="white"/>
<path fill-rule="evenodd" clip-rule="evenodd" d="M71.5892 124.719L66.9705 143.483C66.4275 145.688 64.2471 146.971 62.0665 146.339C59.9011 145.71 58.5853 143.415 59.1287 141.207L61.787 130.408L42.9373 142.488C41.0173 143.603 38.5378 142.899 37.3814 140.886C36.233 138.886 36.8377 136.374 38.7786 135.248L57.7391 123.103L46.9287 119.966C44.757 119.336 43.4315 117.058 43.9766 114.843C44.518 112.644 46.7155 111.371 48.8892 112.002L67.5413 117.414L120.148 86.8843L124.826 67.879C125.369 65.6713 127.565 64.3946 129.73 65.023C131.911 65.6557 133.211 67.9488 132.668 70.1545L129.95 81.1955L149.008 68.9947C150.928 67.8804 153.407 68.584 154.563 70.5974C155.712 72.5968 155.107 75.1088 153.166 76.2353L134.122 88.4281L144.972 91.5763C147.145 92.2071 148.465 94.5003 147.924 96.6995C147.379 98.9141 145.183 100.171 143.011 99.5406L124.32 94.1169L71.5892 124.719Z" fill="white"/>
<path d="M87.1221 75.645L75.5685 64.5806C72.2976 61.4482 72.2826 56.312 75.5597 53.1736C78.7327 50.1351 83.8091 50.1414 86.9842 53.182L88.411 54.3815V39.7357C88.411 35.2846 92.0844 31.7463 96.5683 31.7463C101.045 31.7463 104.726 35.2678 104.726 39.7357V54.3815L106.287 53.182C109.464 50.1402 114.53 50.1266 117.712 53.1736C120.98 56.3034 120.973 61.4491 117.703 64.5806L106.149 75.645H119.303L121.474 66.8749C122.559 62.4924 127.006 59.9183 131.343 61.1697C135.578 62.3917 138.098 66.7819 137.041 71.0514L136.46 73.3446L143.128 68.7243C144.739 66.3138 145.676 63.4298 145.676 60.3307C145.676 54.4907 142.348 49.4142 137.454 46.8312C137.465 46.4963 137.471 46.1601 137.471 45.8225C137.471 29.352 123.879 16 107.112 16C93.8112 16 82.5083 24.4021 78.4035 36.0979C75.4555 34.5867 72.1031 33.7323 68.5477 33.7323C56.7656 33.7323 47.2144 43.1148 47.2144 54.6886C47.2144 61.3344 50.3635 67.2576 55.2758 71.0969L55.2527 71.0036C54.1962 66.7357 56.7277 62.3405 60.951 61.1219C65.3001 59.867 69.7347 62.4432 70.8199 66.827L73.0028 75.645H87.1221Z" fill="white"/>
</svg>
