<svg width="144" height="150" viewBox="0 0 144 150" fill="none" xmlns="http://www.w3.org/2000/svg">
<path d="M131.975 47.5066C131.992 47.0013 132 46.4939 132 45.9846C132 21.1317 112.122 0.984558 87.6001 0.984558C68.1479 0.984558 51.6175 13.6627 45.6141 31.3108C41.3027 29.0305 36.3999 27.7413 31.2 27.7413C13.9687 27.7413 0 41.8988 0 59.3629C0 76.8271 13.9687 90.9845 31.2 90.9845L87.6001 90.9846C87.62 90.9846 87.6399 90.9845 87.6598 90.9845H121.2C133.792 90.9845 144 80.6387 144 67.8764C144 59.0643 139.133 51.4042 131.975 47.5066Z" fill="white"/>
<path fill-rule="evenodd" clip-rule="evenodd" d="M32.216 102.368C32.8987 100.267 35.1553 99.1169 37.2563 99.7996C39.3573 100.482 40.5071 102.739 39.8244 104.84L32.7821 126.514C32.0995 128.615 29.8428 129.765 27.7418 129.082C25.6408 128.399 24.491 126.143 25.1737 124.042L32.216 102.368ZM53.3619 99.7996C51.2609 99.1169 49.0043 100.267 48.3216 102.368L34.6924 144.314C34.0097 146.415 35.1595 148.672 37.2605 149.355C39.3615 150.037 41.6181 148.887 42.3008 146.786L55.9301 104.84C56.6127 102.739 55.4629 100.482 53.3619 99.7996ZM101.506 99.7996C99.4047 99.1169 97.148 100.267 96.4654 102.368L82.8361 144.314C82.1534 146.415 83.3032 148.672 85.4043 149.355C87.5053 150.037 89.7619 148.887 90.4446 146.786L104.074 104.84C104.756 102.739 103.607 100.482 101.506 99.7996ZM64.4275 102.368C65.1101 100.267 67.3668 99.1169 69.4678 99.7996C71.5688 100.482 72.7186 102.739 72.0359 104.84L61.7001 136.65C61.0175 138.751 58.7609 139.901 56.6598 139.218C54.5588 138.536 53.409 136.279 54.0917 134.178L64.4275 102.368ZM117.412 99.7996C115.311 99.1169 113.055 100.267 112.372 102.368L102.036 134.178C101.354 136.279 102.503 138.536 104.604 139.218C106.705 139.901 108.962 138.751 109.645 136.65L119.98 104.84C120.663 102.739 119.513 100.482 117.412 99.7996ZM85.5726 99.7996C83.4716 99.1169 81.215 100.267 80.5323 102.368L73.49 124.042C72.8073 126.143 73.9571 128.399 76.0582 129.082C78.1592 129.765 80.4158 128.615 81.0985 126.514L88.1408 104.84C88.8235 102.739 87.6736 100.482 85.5726 99.7996Z" fill="#B4F5F2"/>
</svg>
