<svg width="160" height="144" viewBox="0 0 160 144" fill="none" xmlns="http://www.w3.org/2000/svg">
<g clip-path="url(#clip0_210_75)">
<path fill-rule="evenodd" clip-rule="evenodd" d="M80 141.6C118.439 141.6 149.6 110.439 149.6 72C149.6 33.561 118.439 2.4 80 2.4C41.561 2.4 10.4 33.561 10.4 72C10.4 110.439 41.561 141.6 80 141.6ZM152 72C152 111.765 119.765 144 80 144C40.2355 144 8 111.765 8 72C8 32.2355 40.2355 0 80 0C119.765 0 152 32.2355 152 72Z" fill="#FFF308" fill-opacity="0.2"/>
<path fill-rule="evenodd" clip-rule="evenodd" d="M79.6 132C112.958 132 140 104.958 140 71.6C140 38.242 112.958 11.2 79.6 11.2C46.242 11.2 19.2 38.242 19.2 71.6C19.2 104.958 46.242 132 79.6 132ZM143.2 71.6C143.2 106.725 114.725 135.2 79.6 135.2C44.4747 135.2 16 106.725 16 71.6C16 36.4747 44.4747 8 79.6 8C114.725 8 143.2 36.4747 143.2 71.6Z" fill="#FFF308" fill-opacity="0.6"/>
<path fill-rule="evenodd" clip-rule="evenodd" d="M79.6 125.6C109.423 125.6 133.6 101.423 133.6 71.6C133.6 41.7766 109.423 17.6 79.6 17.6C49.7766 17.6 25.6 41.7766 25.6 71.6C25.6 101.423 49.7766 125.6 79.6 125.6Z" fill="#FFEC65"/>
</g>
<path d="M151.315 49.0823C151.327 48.723 151.333 48.3622 151.333 48C151.333 30.3269 136.977 16 119.267 16C105.218 16 93.2793 25.0156 88.9435 37.5654C85.8297 35.9438 82.2888 35.027 78.5333 35.027C66.0885 35.027 56 45.0946 56 57.5135C56 69.9324 66.0885 80 78.5333 80L119.31 80H143.533C152.628 80 160 72.6429 160 63.5675C160 57.3011 156.485 51.854 151.315 49.0823Z" fill="white"/>
<path d="M58.6556 106.08C58.663 105.857 58.6667 105.634 58.6667 105.41C58.6667 94.469 49.8318 85.6 38.9334 85.6C30.288 85.6 22.9411 91.1811 20.2729 98.95C18.3567 97.9462 16.1777 97.3786 13.8667 97.3786C6.20832 97.3786 0 103.611 0 111.299C0 118.987 6.20832 125.219 13.8667 125.219L38.9599 125.219H53.8667C59.4632 125.219 64 120.665 64 115.047C64 111.167 61.837 107.795 58.6556 106.08Z" fill="white"/>
<defs>
<clipPath id="clip0_210_75">
<rect width="144" height="144" fill="white" transform="translate(8)"/>
</clipPath>
</defs>
</svg>
