<svg width="144" height="150" viewBox="0 0 144 150" fill="none" xmlns="http://www.w3.org/2000/svg">
<path d="M131.975 47.5066C131.992 47.0013 132 46.4939 132 45.9846C132 21.1317 112.122 0.984558 87.6001 0.984558C68.1479 0.984558 51.6175 13.6627 45.6141 31.3108C41.3027 29.0305 36.3999 27.7413 31.2 27.7413C13.9687 27.7413 0 41.8988 0 59.3629C0 76.8271 13.9687 90.9845 31.2 90.9845L87.6001 90.9846C87.62 90.9846 87.6399 90.9845 87.6598 90.9845H121.2C133.792 90.9845 144 80.6387 144 67.8764C144 59.0643 139.133 51.4042 131.975 47.5066Z" fill="white"/>
<path fill-rule="evenodd" clip-rule="evenodd" d="M57.2563 99.7996C55.1553 99.1169 52.8987 100.267 52.216 102.368L45.1737 124.042C44.491 126.143 45.6408 128.399 47.7418 129.082C49.8428 129.765 52.0994 128.615 52.7821 126.514L59.8244 104.84C60.5071 102.739 59.3573 100.482 57.2563 99.7996ZM68.3216 102.368C69.0043 100.267 71.2609 99.1169 73.3619 99.7996C75.4629 100.482 76.6127 102.739 75.9301 104.84L62.3008 146.786C61.6181 148.887 59.3615 150.037 57.2605 149.355C55.1595 148.672 54.0097 146.415 54.6924 144.314L68.3216 102.368ZM84.4275 102.368C85.1101 100.267 87.3668 99.1169 89.4678 99.7996C91.5688 100.482 92.7186 102.739 92.0359 104.84L81.7001 136.65C81.0175 138.751 78.7609 139.901 76.6598 139.218C74.5588 138.536 73.409 136.279 74.0917 134.178L84.4275 102.368Z" fill="#B4F5F2"/>
</svg>
