<svg width="192" height="192" viewBox="0 0 192 192" fill="" xmlns="http://www.w3.org/2000/svg">
<path d="M155.925 47.7141C155.93 47.5434 155.933 47.3721 155.933 47.2C155.933 38.8053 149.197 32 140.887 32C134.295 32 128.693 36.2824 126.658 42.2435C125.197 41.4733 123.535 41.0378 121.773 41.0378C115.934 41.0378 111.2 45.8199 111.2 51.7189C111.2 57.6179 115.934 62.4 121.773 62.4L140.907 62.4H152.273C156.541 62.4 160 58.9054 160 54.5946C160 51.618 158.351 49.0306 155.925 47.7141Z" fill="white"/>
<path d="M145.105 139.966C147.092 137.919 145.172 134.667 142.326 134.887C140.599 135.021 138.854 135.089 137.093 135.089C100.123 135.089 70.1534 105.142 70.1534 68.2016C70.1534 56.8398 72.9886 46.1397 77.9905 36.769C79.3359 34.2484 77.1184 31.1867 74.4447 32.1984C49.522 41.6288 31.8 65.7313 31.8 93.9762C31.8 130.44 61.3363 160 97.7711 160C116.339 160 133.116 152.323 145.105 139.966Z" fill="#e5e5ea" fill-opacity="0.7"/>
<path d="M74.6556 130.08C74.663 129.857 74.6667 129.634 74.6667 129.41C74.6667 118.469 65.8318 109.6 54.9334 109.6C46.288 109.6 38.9411 115.181 36.2729 122.95C34.3567 121.946 32.1777 121.379 29.8667 121.379C22.2083 121.379 16 127.611 16 135.299C16 142.987 22.2083 149.219 29.8667 149.219L54.9599 149.219H69.8667C75.4632 149.219 80 144.665 80 139.047C80 135.167 77.837 131.795 74.6556 130.08Z" fill="white"/>
</svg>
