<svg width="144" height="119" viewBox="0 0 144 119" fill="none" xmlns="http://www.w3.org/2000/svg">
<path fill-rule="evenodd" clip-rule="evenodd" d="M132 44.5714C132 45.0759 131.992 45.5785 131.975 46.079C139.133 49.9395 144 57.5266 144 66.2548C144 78.8955 133.792 89.1428 121.2 89.1428H87.6598L87.6001 89.1429H86.6921C87.2994 88.7205 91.096 86.0815 92.0966 85.4207C94.0352 86.7471 96.6421 86.9327 98.8139 85.6821C101.014 84.4155 102.157 82.0225 101.936 79.6531C103.215 78.9027 103.255 78.9793 103.255 78.9793C106.261 77.2482 107.293 73.4025 105.555 70.4C103.818 67.3989 99.9664 66.363 96.9551 68.0969C96.9551 68.0969 96.8142 68.2059 95.5916 68.8156C93.6572 67.5139 91.0712 67.3393 88.9143 68.5813C86.7317 69.8381 85.5886 72.2039 85.7869 74.5552C84.6666 75.224 79.8997 78.1173 79.8997 78.1173C79.8997 78.1173 79.9125 71.9547 79.9664 71.1092C82.0591 70.0875 83.4995 67.9438 83.4995 65.4634C83.4995 62.9535 82.0211 60.7859 79.8853 59.7797C79.9164 58.678 79.8997 58.2762 79.8997 58.2762C79.8997 54.814 77.0763 52 73.6 52C70.1254 52 67.3003 54.8084 67.3003 58.2762C67.3003 58.2762 67.3158 58.4086 67.3058 59.7829C65.1741 60.7902 63.7004 62.9546 63.7004 65.4634C63.7004 67.9816 65.1887 70.1552 67.3359 71.1571C67.2772 72.8071 67.3003 78.1173 67.3003 78.1173C67.3003 78.1173 62.6011 75.3505 61.4174 74.5125C61.5993 72.1753 60.4571 69.8316 58.2857 68.5813C56.1212 67.335 53.5208 67.517 51.5832 68.8337C50.36 68.2183 50.2449 68.0969 50.2449 68.0969C47.2384 66.3658 43.3832 67.3975 41.6451 70.4C39.9078 73.4011 40.9339 77.2454 43.9451 78.9793C43.9451 78.9793 44.231 78.9785 45.2591 79.6946C45.0542 82.0504 46.1973 84.4218 48.3861 85.6821C50.5671 86.9379 53.1906 86.7436 55.1327 85.3995C55.729 85.8801 60.5671 88.7045 61.3193 89.1429L31.2 89.1428C13.9687 89.1428 0 75.1202 0 57.8224C0 40.5246 13.9687 26.5019 31.2 26.5019C36.3999 26.5019 41.3027 27.7789 45.6141 30.0375C51.6175 12.5574 68.1479 0 87.6001 0C112.122 0 132 19.9553 132 44.5714Z" fill="white"/>
<path fill-rule="evenodd" clip-rule="evenodd" d="M70.9848 108.695V68.7336H70.1159C68.6698 68.7336 67.4976 67.5639 67.4976 66.1275C67.4976 64.6881 68.6679 63.5213 70.1159 63.5213H70.9848V59.1712C70.9848 57.7354 72.1586 56.5715 73.6001 56.5715C75.0446 56.5715 76.2155 57.7421 76.2155 59.1712V63.5213H77.0844C78.5304 63.5213 79.7027 64.691 79.7027 66.1275C79.7027 67.5668 78.5324 68.7336 77.0844 68.7336H76.2155V108.695H77.0844C78.5304 108.695 79.7027 109.865 79.7027 111.301C79.7027 112.741 78.5324 113.907 77.0844 113.907H76.2155V118.257C76.2155 119.693 75.0416 120.857 73.6001 120.857C72.1557 120.857 70.9848 119.687 70.9848 118.257V113.907H70.1159C68.6698 113.907 67.4976 112.738 67.4976 111.301C67.4976 109.862 68.6679 108.695 70.1159 108.695H70.9848Z" fill="white"/>
<path fill-rule="evenodd" clip-rule="evenodd" d="M57.543 76.467L92.2727 96.4476L92.7072 95.6978C93.4302 94.4499 95.0329 94.0232 96.2813 94.7414C97.5322 95.4611 97.9611 97.0544 97.2371 98.304L96.8027 99.0538L100.583 101.229C101.831 101.947 102.256 103.542 101.535 104.786C100.813 106.032 99.2099 106.457 97.9679 105.743L94.1873 103.568L93.7529 104.318C93.0299 105.566 91.4271 105.992 90.1787 105.274C88.9278 104.554 88.4989 102.961 89.2229 101.711L89.6573 100.962L54.9276 80.981L54.4932 81.7308C53.7702 82.9787 52.1674 83.4055 50.919 82.6873C49.6681 81.9676 49.2392 80.3742 49.9632 79.1246L50.3976 78.3748L46.617 76.1998C45.3692 75.4819 44.9446 73.8869 45.6654 72.6429C46.3876 71.3964 47.9905 70.9712 49.2324 71.6857L53.013 73.8608L53.4475 73.111C54.1705 71.863 55.7732 71.4363 57.0216 72.1545C58.2725 72.8742 58.7014 74.4675 57.9774 75.7171L57.543 76.467Z" fill="white"/>
<path fill-rule="evenodd" clip-rule="evenodd" d="M92.2727 80.981L57.5429 100.962L57.9774 101.712C58.7004 102.959 58.2699 104.556 57.0215 105.274C55.7706 105.994 54.1714 105.567 53.4474 104.318L53.013 103.568L49.2324 105.743C47.9846 106.461 46.3861 106.03 45.6653 104.786C44.9431 103.539 45.3751 101.943 46.617 101.229L50.3976 99.0539L49.9632 98.304C49.2401 97.0561 49.6706 95.4596 50.919 94.7414C52.1699 94.0217 53.7691 94.4482 54.4931 95.6979L54.9276 96.4477L89.6573 76.467L89.2229 75.7172C88.4998 74.4693 88.9303 72.8728 90.1787 72.1545C91.4296 71.4349 93.0288 71.8614 93.7528 73.111L94.1873 73.8608L97.9679 71.6857C99.2157 70.9679 100.814 71.3989 101.535 72.6429C102.257 73.8894 101.825 75.4853 100.583 76.1998L96.8026 78.3748L97.2371 79.1247C97.9601 80.3726 97.5296 81.9691 96.2812 82.6873C95.0303 83.407 93.4311 82.9804 92.7071 81.7308L92.2727 80.981Z" fill="white"/>
</svg>
