<svg width="144" height="119" viewBox="0 0 144 119" fill="none" xmlns="http://www.w3.org/2000/svg">
<path fill-rule="evenodd" clip-rule="evenodd" d="M131.975 46.079C131.992 45.5785 132 45.0759 132 44.5714C132 19.9553 112.122 0 87.6001 0C68.1479 0 51.6175 12.5574 45.6141 30.0375C41.3027 27.7789 36.3999 26.5019 31.2 26.5019C13.9687 26.5019 0 40.5246 0 57.8224C0 69.2698 6.11772 79.2828 15.2502 84.7465C15.3527 83.9425 15.6137 83.1452 16.0451 82.4C17.7832 79.3975 21.6384 78.3658 24.6449 80.0969C24.6449 80.0969 24.76 80.2183 25.9832 80.8337C27.9208 79.517 30.5212 79.335 32.6857 80.5813C34.8571 81.8316 35.9993 84.1753 35.8174 86.5126C36.5421 87.0255 38.5843 88.2614 40.0592 89.1428H41.6973C41.6938 87.5301 41.693 84.3642 41.7359 83.1571C39.5887 82.1552 38.1004 79.9816 38.1004 77.4634C38.1004 74.9546 39.5741 72.7902 41.7058 71.7829C41.7158 70.4086 41.7003 70.2762 41.7003 70.2762C41.7003 66.8084 44.5254 64 48 64C51.4763 64 54.2997 66.814 54.2997 70.2762C54.2997 70.2762 54.3164 70.678 54.2853 71.7797C56.4211 72.7859 57.8996 74.9535 57.8996 77.4634C57.8996 79.9438 56.4591 82.0875 54.3664 83.1092C54.326 83.7435 54.3087 87.3706 54.3026 89.1429H55.9062C57.3989 88.2378 59.4928 86.9696 60.1869 86.5552C59.9886 84.2039 61.1317 81.8381 63.3143 80.5813C65.4712 79.3393 68.0572 79.5139 69.9916 80.8156C71.2142 80.2059 71.3551 80.0969 71.3551 80.0969C74.3664 78.363 78.2176 79.3989 79.9549 82.4C81.2172 84.5806 81.0186 87.2058 79.6637 89.1429H86.3138L86.8921 87.0531L96.5299 52.2242C96.9403 50.7411 98.2899 49.7143 99.8287 49.7143H99.9158H123.572H123.726C126.084 49.7143 127.707 52.0826 126.855 54.2816L121.364 68.9348C121.119 69.5885 121.602 70.2857 122.3 70.2857H129H129.448C131.706 70.2857 133.103 72.7462 131.946 74.6852L124.363 88.9244C135.458 87.3787 144 77.8181 144 66.2548C144 57.5266 139.133 49.9395 131.975 46.079Z" fill="white"/>
<path fill-rule="evenodd" clip-rule="evenodd" d="M101.513 54C100.789 54 100.155 54.4861 99.9676 55.1854L91.3976 87.1283C91.1249 88.1446 91.8907 89.1429 92.9429 89.1429H104.484C105.442 89.1429 106.186 89.9801 106.073 90.932L103.107 115.841C102.894 117.629 105.338 118.352 106.132 116.736L125.724 76.8772C126.246 75.8141 125.472 74.5714 124.288 74.5714H117.166C116.049 74.5714 115.275 73.4556 115.668 72.4096L121.761 56.1618C122.153 55.1158 121.38 54 120.263 54H101.513Z" fill="#FFF686"/>
<path fill-rule="evenodd" clip-rule="evenodd" d="M45.3847 120.695V80.7336H44.5158C43.0698 80.7336 41.8975 79.5638 41.8975 78.1274C41.8975 76.688 43.0678 75.5212 44.5158 75.5212H45.3847V71.1711C45.3847 69.7353 46.5585 68.5714 48 68.5714C49.4445 68.5714 50.6154 69.7421 50.6154 71.1711V75.5212H51.4843C52.9303 75.5212 54.1026 76.691 54.1026 78.1274C54.1026 79.5667 52.9323 80.7336 51.4843 80.7336H50.6154V120.695H51.4843C52.9303 120.695 54.1026 121.865 54.1026 123.301C54.1026 124.74 52.9323 125.907 51.4843 125.907H50.6154V130.257C50.6154 131.693 49.4415 132.857 48 132.857C46.5556 132.857 45.3847 131.686 45.3847 130.257V125.907H44.5158C43.0698 125.907 41.8975 124.738 41.8975 123.301C41.8975 121.862 43.0678 120.695 44.5158 120.695H45.3847Z" fill="white"/>
<path fill-rule="evenodd" clip-rule="evenodd" d="M31.9429 88.4669L66.6726 108.448L67.1071 107.698C67.8301 106.45 69.4328 106.023 70.6812 106.741C71.9321 107.461 72.361 109.054 71.637 110.304L71.2026 111.054L74.9832 113.229C76.231 113.947 76.6556 115.542 75.9349 116.786C75.2126 118.032 73.6098 118.457 72.3678 117.743L68.5872 115.568L68.1528 116.318C67.4298 117.566 65.827 117.992 64.5786 117.274C63.3277 116.554 62.8988 114.961 63.6228 113.711L64.0572 112.962L29.3275 92.9809L28.8931 93.7307C28.1701 94.9786 26.5673 95.4054 25.3189 94.6872C24.068 93.9675 23.6391 92.3742 24.3631 91.1246L24.7976 90.3747L21.0169 88.1997C19.7691 87.4818 19.3445 85.8868 20.0653 84.6428C20.7875 83.3963 22.3904 82.9711 23.6323 83.6857L27.4129 85.8607L27.8474 85.1109C28.5704 83.863 30.1731 83.4362 31.4215 84.1544C32.6724 84.8741 33.1013 86.4675 32.3773 87.7171L31.9429 88.4669Z" fill="white"/>
<path fill-rule="evenodd" clip-rule="evenodd" d="M66.6726 92.981L31.9428 112.962L32.3773 113.711C33.1003 114.959 32.6698 116.556 31.4214 117.274C30.1705 117.994 28.5713 117.567 27.8473 116.318L27.4129 115.568L23.6323 117.743C22.3845 118.461 20.786 118.03 20.0652 116.786C19.343 115.539 19.775 113.943 21.0169 113.229L24.7975 111.054L24.3631 110.304C23.64 109.056 24.0705 107.46 25.3189 106.741C26.5698 106.022 28.169 106.448 28.893 107.698L29.3275 108.448L64.0572 88.4669L63.6228 87.7171C62.8997 86.4692 63.3302 84.8727 64.5786 84.1545C65.8295 83.4348 67.4287 83.8613 68.1527 85.1109L68.5872 85.8607L72.3678 83.6857C73.6156 82.9678 75.2141 83.3989 75.9348 84.6429C76.657 85.8894 76.2251 87.4852 74.9831 88.1997L71.2025 90.3748L71.637 91.1246C72.36 92.3725 71.9295 93.969 70.6811 94.6872C69.4302 95.4069 67.831 94.9804 67.107 93.7308L66.6726 92.981Z" fill="white"/>
</svg>
