<svg width="24" height="24" viewBox="0 0 24 24" fill="none" xmlns="http://www.w3.org/2000/svg">
<path d="M3 8H9.5C9.99445 8 10.4778 7.85338 10.8889 7.57867C11.3 7.30397 11.6205 6.91352 11.8097 6.45671C11.9989 5.99989 12.0484 5.49723 11.952 5.01228C11.8555 4.52732 11.6174 4.08187 11.2678 3.73223C10.9181 3.3826 10.4727 3.1445 9.98773 3.04804C9.50277 2.95157 9.00011 3.00108 8.54329 3.1903C8.08648 3.37952 7.69603 3.69995 7.42133 4.11108C7.14662 4.5222 7 5.00555 7 5.5V5.857M4 14H18.5C19.1922 14 19.8689 14.2053 20.4445 14.5899C21.0201 14.9744 21.4687 15.5211 21.7336 16.1606C21.9985 16.8002 22.0678 17.5039 21.9327 18.1828C21.7977 18.8618 21.4644 19.4854 20.9749 19.9749C20.4854 20.4644 19.8617 20.7977 19.1828 20.9328C18.5039 21.0678 17.8001 20.9985 17.1606 20.7336C16.5211 20.4687 15.9744 20.0201 15.5899 19.4445C15.2053 18.8689 15 18.1922 15 17.5V17" stroke="white" stroke-width="1.5" stroke-linecap="round"/>
<path d="M2 11H18.5C19.1922 11 19.8689 10.7947 20.4445 10.4101C21.0201 10.0256 21.4687 9.47893 21.7336 8.83939C21.9985 8.19985 22.0678 7.49612 21.9327 6.81719C21.7977 6.13825 21.4644 5.51461 20.9749 5.02513C20.4854 4.53564 19.8617 4.2023 19.1828 4.06725C18.5039 3.9322 17.8001 4.00152 17.1606 4.26642C16.5211 4.53133 15.9744 4.97993 15.5899 5.55551C15.2053 6.13108 15 6.80777 15 7.5V8" stroke="white" stroke-width="1.5" stroke-linecap="round"/>
</svg>
