<svg width="144" height="150" viewBox="0 0 144 150" fill="none" xmlns="http://www.w3.org/2000/svg">
<path fill-rule="evenodd" clip-rule="evenodd" d="M132 45.9846C132 46.4939 131.992 47.0013 131.975 47.5066C139.133 51.4042 144 59.0643 144 67.8764C144 78.9829 136.269 88.2593 125.964 90.4794L133.108 77.1556C134.294 75.1815 132.872 72.6685 130.569 72.6685H130.083H123.167C122.468 72.6685 121.985 71.9695 122.232 71.3155L127.88 56.346C128.754 54.1056 127.101 51.6878 124.696 51.6878H124.509H100.217H100.111C98.54 51.6878 97.1618 52.7346 96.7402 54.2477L86.8435 89.7695L86.505 90.9846L31.2 90.9845C13.9687 90.9845 0 76.8271 0 59.3629C0 41.8988 13.9687 27.7413 31.2 27.7413C36.3999 27.7413 41.3027 29.0305 45.6141 31.3108C51.6175 13.6627 68.1479 0.984558 87.6001 0.984558C112.122 0.984558 132 21.1317 132 45.9846Z" fill="white"/>
<path fill-rule="evenodd" clip-rule="evenodd" d="M32.216 102.368C32.8987 100.267 35.1553 99.1169 37.2563 99.7996C39.3573 100.482 40.5071 102.739 39.8244 104.84L32.7821 126.514C32.0995 128.615 29.8428 129.765 27.7418 129.082C25.6408 128.399 24.491 126.143 25.1737 124.042L32.216 102.368ZM53.362 99.7996C51.261 99.1169 49.0044 100.267 48.3217 102.368L34.6924 144.314C34.0098 146.415 35.1596 148.672 37.2606 149.355C39.3616 150.037 41.6182 148.887 42.3009 146.786L55.9302 104.84C56.6128 102.739 55.463 100.482 53.362 99.7996ZM69.4677 99.7996C67.3667 99.1169 65.1101 100.267 64.4274 102.368L54.0916 134.178C53.4089 136.279 54.5588 138.536 56.6598 139.218C58.7608 139.901 61.0174 138.751 61.7001 136.65L72.0359 104.84C72.7185 102.739 71.5687 100.482 69.4677 99.7996ZM85.5726 99.7996C83.4716 99.1169 81.215 100.267 80.5323 102.368L73.49 124.042C72.8073 126.143 73.9571 128.399 76.0582 129.082C78.1592 129.765 80.4158 128.615 81.0985 126.514L88.1408 104.84C88.8235 102.739 87.6736 100.482 85.5726 99.7996Z" fill="#B4F5F2"/>
<path fill-rule="evenodd" clip-rule="evenodd" d="M102.184 56.4265C101.46 56.4265 100.826 56.9125 100.638 57.6116L92.2302 88.9289C91.9573 89.9453 92.7231 90.9438 93.7754 90.9438H105.063C106.018 90.9438 106.76 91.7747 106.653 92.7235L103.633 119.447C103.433 121.217 105.84 121.94 106.649 120.353L127.657 79.1001C128.199 78.0356 127.426 76.774 126.232 76.774H117.004C115.87 76.774 115.096 75.6259 115.521 74.5741L121.971 58.6264C122.397 57.5746 121.623 56.4265 120.488 56.4265H102.184Z" fill="#FFF686"/>
</svg>
