<svg width="24" height="24" viewBox="0 0 24 24" fill="none" xmlns="http://www.w3.org/2000/svg">
<path d="M12 3V4.5M17 13C17 11.6739 16.4732 10.4021 15.5355 9.46447C14.5979 8.52678 13.3261 8 12 8C10.6739 8 9.40215 8.52678 8.46447 9.46447C7.52678 10.4021 7 11.6739 7 13M5.988 6.99L4.928 5.929M22 13H20.5M3.5 13H2M19.07 5.929L18.01 6.989M6.5 16V19C6.5 19.943 6.5 20.414 6.793 20.707C7.086 21 7.557 21 8.5 21C9.443 21 9.914 21 10.207 20.707C10.5 20.414 10.5 19.943 10.5 19V16M13.5 16L15.5 21L17.5 16" stroke="white" stroke-width="1.5" stroke-linecap="round" stroke-linejoin="round"/>
</svg>
